<svg width="113" height="98" viewBox="0 0 113 98" fill="none" xmlns="http://www.w3.org/2000/svg">
<g id="about_dots.svg" clip-path="url(#clip0_5_79)">
<path id="Vector" d="M17.43 4.12387C17.1218 4.12387 16.8204 4.03268 16.5641 3.86182C16.3078 3.69097 16.108 3.44812 15.99 3.164C15.872 2.87987 15.8412 2.56723 15.9013 2.26561C15.9615 1.96398 16.1099 1.68692 16.3279 1.46946C16.5459 1.252 16.8236 1.10391 17.1259 1.04392C17.4283 0.983919 17.7417 1.01471 18.0265 1.1324C18.3113 1.25009 18.5547 1.44939 18.726 1.70509C18.8973 1.9608 18.9887 2.26142 18.9887 2.56896C18.9867 2.98074 18.8219 3.37511 18.53 3.66629C18.2381 3.95747 17.8428 4.12192 17.43 4.12387Z" fill="#9B9B9B"/>
<path id="Vector_2" d="M17.43 17.4782C17.1214 17.4782 16.8198 17.3868 16.5633 17.2157C16.3068 17.0445 16.1071 16.8012 15.9893 16.5166C15.8716 16.2321 15.8411 15.919 15.9019 15.6172C15.9626 15.3154 16.1118 15.0384 16.3306 14.8212C16.5493 14.604 16.8277 14.4565 17.1305 14.3974C17.4334 14.3382 17.747 14.3701 18.0317 14.4889C18.3164 14.6077 18.5593 14.8082 18.7296 15.0649C18.9 15.3216 18.9902 15.6229 18.9887 15.9308C18.9867 16.3419 18.8216 16.7354 18.5295 17.0254C18.2374 17.3154 17.8421 17.4782 17.43 17.4782Z" fill="#9B9B9B"/>
<path id="Vector_3" d="M17.43 30.8401C17.1218 30.8401 16.8204 30.7489 16.5641 30.5781C16.3078 30.4072 16.108 30.1644 15.99 29.8802C15.872 29.5961 15.8412 29.2835 15.9013 28.9818C15.9615 28.6802 16.1099 28.4032 16.3279 28.1857C16.5459 27.9682 16.8236 27.8201 17.1259 27.7601C17.4283 27.7001 17.7417 27.7309 18.0265 27.8486C18.3113 27.9663 18.5547 28.1656 18.726 28.4213C18.8973 28.677 18.9887 28.9777 18.9887 29.2852C18.9887 29.4894 18.9484 29.6916 18.87 29.8802C18.7917 30.0689 18.6769 30.2403 18.5322 30.3847C18.3874 30.5291 18.2156 30.6436 18.0265 30.7217C17.8374 30.7999 17.6347 30.8401 17.43 30.8401Z" fill="#9B9B9B"/>
<path id="Vector_4" d="M17.4299 44.202C17.1204 44.2019 16.8179 44.1099 16.561 43.9377C16.304 43.7655 16.1043 43.5209 15.9873 43.235C15.8702 42.9491 15.8412 42.635 15.9038 42.3326C15.9664 42.0302 16.1178 41.7532 16.3388 41.537C16.5597 41.3208 16.8403 41.1751 17.1445 41.1185C17.4488 41.0619 17.7631 41.0969 18.0474 41.2192C18.3316 41.3415 18.5729 41.5454 18.7405 41.805C18.9082 42.0646 18.9945 42.3681 18.9886 42.6768C18.9789 43.0834 18.8106 43.4702 18.5196 43.755C18.2285 44.0398 17.8376 44.2001 17.4299 44.202Z" fill="#9B9B9B"/>
<path id="Vector_5" d="M17.43 57.1918C17.1218 57.1918 16.8204 57.1006 16.5641 56.9298C16.3078 56.7589 16.108 56.5161 15.99 56.232C15.872 55.9478 15.8412 55.6352 15.9013 55.3336C15.9615 55.032 16.1099 54.7549 16.3279 54.5374C16.5459 54.32 16.8236 54.1719 17.1259 54.1119C17.4283 54.0519 17.7417 54.0827 18.0265 54.2004C18.3113 54.3181 18.5547 54.5174 18.726 54.7731C18.8973 55.0288 18.9887 55.3294 18.9887 55.6369C18.9887 56.0493 18.8245 56.4448 18.5322 56.7364C18.2399 57.028 17.8434 57.1918 17.43 57.1918Z" fill="#9B9B9B"/>
<path id="Vector_6" d="M17.43 70.5538C17.1218 70.5538 16.8204 70.4626 16.5641 70.2918C16.3078 70.1209 16.108 69.8781 15.99 69.5939C15.872 69.3098 15.8412 68.9972 15.9013 68.6955C15.9615 68.3939 16.1099 68.1169 16.3279 67.8994C16.5459 67.6819 16.8236 67.5338 17.1259 67.4739C17.4283 67.4139 17.7417 67.4446 18.0265 67.5623C18.3113 67.68 18.5547 67.8793 18.726 68.135C18.8973 68.3907 18.9887 68.6914 18.9887 68.9989C18.9867 69.4107 18.8219 69.805 18.53 70.0962C18.2381 70.3874 17.8428 70.5519 17.43 70.5538Z" fill="#9B9B9B"/>
<path id="Vector_7" d="M17.43 83.9157C17.1218 83.9157 16.8204 83.8245 16.5641 83.6536C16.3078 83.4828 16.108 83.2399 15.99 82.9558C15.872 82.6717 15.8412 82.359 15.9013 82.0574C15.9615 81.7558 16.1099 81.4787 16.3279 81.2613C16.5459 81.0438 16.8236 80.8957 17.1259 80.8357C17.4283 80.7757 17.7417 80.8065 18.0265 80.9242C18.3113 81.0419 18.5547 81.2412 18.726 81.4969C18.8973 81.7526 18.9887 82.0532 18.9887 82.3608C18.9867 82.7725 18.8219 83.1669 18.53 83.4581C18.2381 83.7493 17.8428 83.9137 17.43 83.9157Z" fill="#9B9B9B"/>
<path id="Vector_8" d="M17.43 97.27C17.1218 97.27 16.8204 97.1788 16.5641 97.0079C16.3078 96.8371 16.108 96.5942 15.99 96.3101C15.872 96.026 15.8412 95.7134 15.9013 95.4117C15.9615 95.1101 16.1099 94.833 16.3279 94.6156C16.5459 94.3981 16.8236 94.25 17.1259 94.19C17.4283 94.13 17.7417 94.1608 18.0265 94.2785C18.3113 94.3962 18.5547 94.5955 18.726 94.8512C18.8973 95.1069 18.9887 95.4075 18.9887 95.7151C18.9887 96.1275 18.8245 96.523 18.5322 96.8146C18.2399 97.1062 17.8434 97.27 17.43 97.27Z" fill="#9B9B9B"/>
<path id="Vector_9" d="M1.76887 4.12387C1.4606 4.12387 1.15924 4.03268 0.90292 3.86182C0.6466 3.69097 0.446823 3.44812 0.328852 3.164C0.21088 2.87987 0.180014 2.56723 0.240155 2.26561C0.300296 1.96398 0.448744 1.68692 0.666726 1.46946C0.884709 1.252 1.16244 1.10391 1.46479 1.04392C1.76714 0.983919 2.08052 1.01471 2.36533 1.1324C2.65015 1.25009 2.89358 1.44939 3.06485 1.70509C3.2361 1.9608 3.32753 2.26142 3.32753 2.56896C3.32557 2.98074 3.16072 3.37511 2.86883 3.66629C2.57695 3.95747 2.18165 4.12192 1.76887 4.12387Z" fill="#9B9B9B"/>
<path id="Vector_10" d="M1.76885 17.4782C1.46026 17.4782 1.15861 17.3868 0.902132 17.2157C0.645653 17.0445 0.445883 16.8012 0.328134 16.5166C0.210385 16.2321 0.179957 15.919 0.240705 15.6172C0.301453 15.3154 0.450643 15.0384 0.669372 14.8212C0.888101 14.604 1.16653 14.4565 1.46937 14.3974C1.77221 14.3382 2.08583 14.3701 2.37051 14.4889C2.65518 14.6077 2.89809 14.8082 3.06846 15.0649C3.23883 15.3216 3.32898 15.6229 3.32751 15.9308C3.32554 16.3419 3.16045 16.7354 2.86836 17.0254C2.57627 17.3154 2.18094 17.4782 1.76885 17.4782Z" fill="#9B9B9B"/>
<path id="Vector_11" d="M1.76887 30.8401C1.4606 30.8401 1.15924 30.7489 0.90292 30.5781C0.6466 30.4072 0.446823 30.1644 0.328852 29.8802C0.21088 29.5961 0.180014 29.2835 0.240155 28.9818C0.300296 28.6802 0.448744 28.4032 0.666726 28.1857C0.884709 27.9682 1.16244 27.8201 1.46479 27.7601C1.76714 27.7001 2.08052 27.7309 2.36533 27.8486C2.65015 27.9663 2.89358 28.1656 3.06485 28.4213C3.2361 28.677 3.32753 28.9777 3.32753 29.2852C3.32753 29.4894 3.28721 29.6916 3.20888 29.8802C3.13055 30.0689 3.01574 30.2403 2.87101 30.3847C2.72626 30.5291 2.55445 30.6436 2.36533 30.7217C2.17623 30.7999 1.97356 30.8401 1.76887 30.8401Z" fill="#9B9B9B"/>
<path id="Vector_12" d="M1.76882 44.202C1.45929 44.2019 1.15679 44.1099 0.899859 43.9377C0.642933 43.7655 0.443221 43.5209 0.326177 43.235C0.209133 42.9491 0.180058 42.635 0.242657 42.3326C0.305256 42.0302 0.456694 41.7532 0.67767 41.537C0.898647 41.3208 1.17915 41.1751 1.48344 41.1185C1.78773 41.0619 2.10202 41.0969 2.38625 41.2192C2.67049 41.3415 2.9118 41.5454 3.07942 41.805C3.24705 42.0646 3.3334 42.3681 3.32748 42.6768C3.31778 43.0834 3.14952 43.4702 2.85847 43.755C2.56741 44.0398 2.17651 44.2001 1.76882 44.202Z" fill="#9B9B9B"/>
<path id="Vector_13" d="M1.76887 57.1918C1.4606 57.1918 1.15924 57.1006 0.90292 56.9298C0.6466 56.7589 0.446823 56.5161 0.328852 56.232C0.21088 55.9478 0.180014 55.6352 0.240155 55.3336C0.300296 55.032 0.448744 54.7549 0.666726 54.5374C0.884709 54.32 1.16244 54.1719 1.46479 54.1119C1.76714 54.0519 2.08052 54.0827 2.36533 54.2004C2.65015 54.3181 2.89358 54.5174 3.06485 54.7731C3.2361 55.0288 3.32753 55.3294 3.32753 55.6369C3.32753 56.0493 3.16331 56.4448 2.87101 56.7364C2.5787 57.028 2.18225 57.1918 1.76887 57.1918Z" fill="#9B9B9B"/>
<path id="Vector_14" d="M1.76887 70.5538C1.4606 70.5538 1.15924 70.4626 0.90292 70.2918C0.6466 70.1209 0.446823 69.8781 0.328852 69.5939C0.21088 69.3098 0.180014 68.9972 0.240155 68.6955C0.300296 68.3939 0.448744 68.1169 0.666726 67.8994C0.884709 67.6819 1.16244 67.5338 1.46479 67.4739C1.76714 67.4139 2.08052 67.4446 2.36533 67.5623C2.65015 67.68 2.89358 67.8793 3.06485 68.135C3.2361 68.3907 3.32753 68.6914 3.32753 68.9989C3.32557 69.4107 3.16072 69.805 2.86883 70.0962C2.57695 70.3874 2.18165 70.5519 1.76887 70.5538Z" fill="#9B9B9B"/>
<path id="Vector_15" d="M1.76887 83.9157C1.4606 83.9157 1.15924 83.8245 0.90292 83.6536C0.6466 83.4828 0.446823 83.2399 0.328852 82.9558C0.21088 82.6717 0.180014 82.359 0.240155 82.0574C0.300296 81.7558 0.448744 81.4787 0.666726 81.2613C0.884709 81.0438 1.16244 80.8957 1.46479 80.8357C1.76714 80.7757 2.08052 80.8065 2.36533 80.9242C2.65015 81.0419 2.89358 81.2412 3.06485 81.4969C3.2361 81.7526 3.32753 82.0532 3.32753 82.3608C3.32557 82.7725 3.16072 83.1669 2.86883 83.4581C2.57695 83.7493 2.18165 83.9137 1.76887 83.9157Z" fill="#9B9B9B"/>
<path id="Vector_16" d="M1.76887 97.27C1.4606 97.27 1.15924 97.1788 0.90292 97.0079C0.6466 96.8371 0.446823 96.5942 0.328852 96.3101C0.21088 96.026 0.180014 95.7134 0.240155 95.4117C0.300296 95.1101 0.448744 94.833 0.666726 94.6156C0.884709 94.3981 1.16244 94.25 1.46479 94.19C1.76714 94.13 2.08052 94.1608 2.36533 94.2785C2.65015 94.3962 2.89358 94.5955 3.06485 94.8512C3.2361 95.1069 3.32753 95.4075 3.32753 95.7151C3.32753 96.1275 3.16331 96.523 2.87101 96.8146C2.5787 97.1062 2.18225 97.27 1.76887 97.27Z" fill="#9B9B9B"/>
<path id="Vector_17" d="M48.7524 3.37985C48.4441 3.37985 48.1427 3.28866 47.8864 3.1178C47.6301 2.94695 47.4303 2.7041 47.3123 2.41998C47.1944 2.13585 47.1635 1.82321 47.2236 1.52159C47.2838 1.21996 47.4322 0.942904 47.6502 0.725444C47.8682 0.507986 48.1459 0.359894 48.4483 0.299898C48.7506 0.239901 49.064 0.270693 49.3488 0.388382C49.6336 0.50607 49.8771 0.705367 50.0483 0.961072C50.2196 1.21678 50.311 1.5174 50.311 1.82494C50.3091 2.23672 50.1442 2.63109 49.8523 2.92227C49.5604 3.21345 49.1651 3.3779 48.7524 3.37985Z" fill="#9B9B9B"/>
<path id="Vector_18" d="M48.7524 16.7343C48.4438 16.7343 48.1421 16.6429 47.8856 16.4717C47.6292 16.3005 47.4294 16.0572 47.3116 15.7727C47.1939 15.4881 47.1635 15.1751 47.2242 14.8732C47.285 14.5714 47.4342 14.2944 47.6529 14.0772C47.8716 13.8601 48.15 13.7126 48.4529 13.6534C48.7557 13.5942 49.0693 13.6261 49.354 13.7449C49.6387 13.8638 49.8816 14.0642 50.052 14.3209C50.2223 14.5776 50.3125 14.8789 50.311 15.1868C50.309 15.5979 50.144 15.9915 49.8519 16.2815C49.5598 16.5715 49.1644 16.7343 48.7524 16.7343Z" fill="#9B9B9B"/>
<path id="Vector_19" d="M48.7524 30.0961C48.4441 30.0961 48.1427 30.0049 47.8864 29.8341C47.6301 29.6632 47.4303 29.4204 47.3123 29.1362C47.1944 28.8521 47.1635 28.5395 47.2236 28.2379C47.2838 27.9362 47.4322 27.6592 47.6502 27.4417C47.8682 27.2243 48.1459 27.0762 48.4483 27.0162C48.7506 26.9562 49.064 26.987 49.3488 27.1047C49.6336 27.2223 49.8771 27.4216 50.0483 27.6773C50.2196 27.933 50.311 28.2337 50.311 28.5412C50.311 28.7454 50.2707 28.9476 50.1924 29.1362C50.114 29.3249 49.9992 29.4963 49.8545 29.6407C49.7098 29.7851 49.5379 29.8996 49.3488 29.9778C49.1597 30.0559 48.957 30.0961 48.7524 30.0961Z" fill="#9B9B9B"/>
<path id="Vector_20" d="M48.7524 43.458C48.4428 43.4579 48.1403 43.3659 47.8834 43.1937C47.6265 43.0215 47.4268 42.7769 47.3097 42.491C47.1927 42.2052 47.1636 41.891 47.2262 41.5886C47.2888 41.2862 47.4402 41.0092 47.6612 40.793C47.8822 40.5768 48.1627 40.4311 48.467 40.3745C48.7713 40.3179 49.0856 40.353 49.3698 40.4752C49.654 40.5975 49.8953 40.8014 50.063 41.061C50.2306 41.3206 50.3169 41.6241 50.311 41.9328C50.3013 42.3394 50.1331 42.7262 49.842 43.011C49.5509 43.2958 49.16 43.4562 48.7524 43.458Z" fill="#9B9B9B"/>
<path id="Vector_21" d="M48.7524 56.4479C48.4441 56.4479 48.1427 56.3567 47.8864 56.1858C47.6301 56.015 47.4303 55.7721 47.3123 55.488C47.1944 55.2039 47.1635 54.8912 47.2236 54.5896C47.2838 54.288 47.4322 54.0109 47.6502 53.7935C47.8682 53.576 48.1459 53.4279 48.4483 53.3679C48.7506 53.3079 49.064 53.3387 49.3488 53.4564C49.6336 53.5741 49.8771 53.7734 50.0483 54.0291C50.2196 54.2848 50.311 54.5854 50.311 54.8929C50.311 55.3053 50.1468 55.7008 49.8545 55.9924C49.5622 56.284 49.1657 56.4479 48.7524 56.4479Z" fill="#9B9B9B"/>
<path id="Vector_22" d="M48.7524 69.8097C48.4441 69.8097 48.1427 69.7185 47.8864 69.5477C47.6301 69.3768 47.4303 69.134 47.3123 68.8498C47.1944 68.5657 47.1635 68.2531 47.2236 67.9515C47.2838 67.6498 47.4322 67.3728 47.6502 67.1553C47.8682 66.9379 48.1459 66.7898 48.4483 66.7298C48.7506 66.6698 49.064 66.7006 49.3488 66.8183C49.6336 66.9359 49.8771 67.1352 50.0483 67.3909C50.2196 67.6466 50.311 67.9473 50.311 68.2548C50.3091 68.6666 50.1442 69.061 49.8523 69.3521C49.5604 69.6433 49.1651 69.8078 48.7524 69.8097Z" fill="#9B9B9B"/>
<path id="Vector_23" d="M48.7524 83.1716C48.4441 83.1716 48.1427 83.0804 47.8864 82.9095C47.6301 82.7387 47.4303 82.4958 47.3123 82.2117C47.1944 81.9276 47.1635 81.6149 47.2236 81.3133C47.2838 81.0117 47.4322 80.7346 47.6502 80.5172C47.8682 80.2997 48.1459 80.1516 48.4483 80.0916C48.7506 80.0316 49.064 80.0624 49.3488 80.1801C49.6336 80.2978 49.8771 80.4971 50.0483 80.7528C50.2196 81.0085 50.311 81.3091 50.311 81.6167C50.3091 82.0285 50.1442 82.4228 49.8523 82.714C49.5604 83.0052 49.1651 83.1696 48.7524 83.1716Z" fill="#9B9B9B"/>
<path id="Vector_24" d="M48.7524 96.526C48.4441 96.526 48.1427 96.4348 47.8864 96.264C47.6301 96.0931 47.4303 95.8503 47.3123 95.5661C47.1944 95.282 47.1635 94.9694 47.2236 94.6678C47.2838 94.3661 47.4322 94.0891 47.6502 93.8716C47.8682 93.6541 48.1459 93.5061 48.4483 93.4461C48.7506 93.3861 49.064 93.4169 49.3488 93.5345C49.6336 93.6522 49.8771 93.8515 50.0483 94.1072C50.2196 94.3629 50.311 94.6636 50.311 94.9711C50.311 95.3835 50.1468 95.779 49.8545 96.0706C49.5622 96.3622 49.1657 96.526 48.7524 96.526Z" fill="#9B9B9B"/>
<path id="Vector_25" d="M33.0912 3.37985C32.7829 3.37985 32.4816 3.28866 32.2252 3.1178C31.9689 2.94695 31.7691 2.7041 31.6512 2.41998C31.5332 2.13585 31.5023 1.82321 31.5625 1.52159C31.6226 1.21996 31.7711 0.942904 31.9891 0.725444C32.207 0.507986 32.4848 0.359894 32.7871 0.299898C33.0895 0.239901 33.4029 0.270693 33.6877 0.388382C33.9725 0.50607 34.2158 0.705367 34.3871 0.961072C34.5583 1.21678 34.6498 1.5174 34.6498 1.82494C34.6479 2.23672 34.483 2.63109 34.1912 2.92227C33.8993 3.21345 33.504 3.3779 33.0912 3.37985Z" fill="#9B9B9B"/>
<path id="Vector_26" d="M33.0911 16.7343C32.7825 16.7343 32.4809 16.6429 32.2244 16.4717C31.9679 16.3005 31.7681 16.0572 31.6504 15.7727C31.5326 15.4881 31.5022 15.1751 31.5629 14.8732C31.6237 14.5714 31.7729 14.2944 31.9916 14.0772C32.2103 13.8601 32.4888 13.7126 32.7916 13.6534C33.0944 13.5942 33.4081 13.6261 33.6928 13.7449C33.9774 13.8638 34.2203 14.0642 34.3907 14.3209C34.5611 14.5776 34.6512 14.8789 34.6497 15.1868C34.6478 15.5979 34.4827 15.9915 34.1906 16.2815C33.8985 16.5715 33.5032 16.7343 33.0911 16.7343Z" fill="#9B9B9B"/>
<path id="Vector_27" d="M33.0912 30.0961C32.7829 30.0961 32.4816 30.0049 32.2252 29.8341C31.9689 29.6632 31.7691 29.4204 31.6512 29.1362C31.5332 28.8521 31.5023 28.5395 31.5625 28.2379C31.6226 27.9362 31.7711 27.6592 31.9891 27.4417C32.207 27.2243 32.4848 27.0762 32.7871 27.0162C33.0895 26.9562 33.4029 26.987 33.6877 27.1047C33.9725 27.2223 34.2158 27.4216 34.3871 27.6773C34.5583 27.933 34.6498 28.2337 34.6498 28.5412C34.6498 28.7454 34.6095 28.9476 34.5312 29.1362C34.4529 29.3249 34.3381 29.4963 34.1933 29.6407C34.0486 29.7851 33.8768 29.8996 33.6877 29.9778C33.4986 30.0559 33.2959 30.0961 33.0912 30.0961Z" fill="#9B9B9B"/>
<path id="Vector_28" d="M33.0911 43.458C32.7816 43.4579 32.4791 43.3659 32.2221 43.1937C31.9652 43.0215 31.7655 42.7769 31.6484 42.491C31.5314 42.2052 31.5023 41.891 31.5649 41.5886C31.6275 41.2862 31.779 41.0092 31.9999 40.793C32.2209 40.5768 32.5014 40.4311 32.8057 40.3745C33.11 40.3179 33.4243 40.353 33.7085 40.4752C33.9928 40.5975 34.2341 40.8014 34.4017 41.061C34.5693 41.3206 34.6557 41.6241 34.6497 41.9328C34.64 42.3394 34.4718 42.7262 34.1807 43.011C33.8897 43.2958 33.4988 43.4562 33.0911 43.458Z" fill="#9B9B9B"/>
<path id="Vector_29" d="M33.0912 56.4479C32.7829 56.4479 32.4816 56.3567 32.2252 56.1858C31.9689 56.015 31.7691 55.7721 31.6512 55.488C31.5332 55.2039 31.5023 54.8912 31.5625 54.5896C31.6226 54.288 31.7711 54.0109 31.9891 53.7935C32.207 53.576 32.4848 53.4279 32.7871 53.3679C33.0895 53.3079 33.4029 53.3387 33.6877 53.4564C33.9725 53.5741 34.2158 53.7734 34.3871 54.0291C34.5583 54.2848 34.6498 54.5854 34.6498 54.8929C34.6498 55.3053 34.4856 55.7008 34.1933 55.9924C33.901 56.284 33.5046 56.4479 33.0912 56.4479Z" fill="#9B9B9B"/>
<path id="Vector_30" d="M33.0912 69.8097C32.7829 69.8097 32.4816 69.7185 32.2252 69.5477C31.9689 69.3768 31.7691 69.134 31.6512 68.8498C31.5332 68.5657 31.5023 68.2531 31.5625 67.9515C31.6226 67.6498 31.7711 67.3728 31.9891 67.1553C32.207 66.9379 32.4848 66.7898 32.7871 66.7298C33.0895 66.6698 33.4029 66.7006 33.6877 66.8183C33.9725 66.9359 34.2158 67.1352 34.3871 67.3909C34.5583 67.6466 34.6498 67.9473 34.6498 68.2548C34.6479 68.6666 34.483 69.061 34.1912 69.3521C33.8993 69.6433 33.504 69.8078 33.0912 69.8097Z" fill="#9B9B9B"/>
<path id="Vector_31" d="M33.0912 83.1716C32.7829 83.1716 32.4816 83.0804 32.2252 82.9095C31.9689 82.7387 31.7691 82.4958 31.6512 82.2117C31.5332 81.9276 31.5023 81.6149 31.5625 81.3133C31.6226 81.0117 31.7711 80.7346 31.9891 80.5172C32.207 80.2997 32.4848 80.1516 32.7871 80.0916C33.0895 80.0316 33.4029 80.0624 33.6877 80.1801C33.9725 80.2978 34.2158 80.4971 34.3871 80.7528C34.5583 81.0085 34.6498 81.3091 34.6498 81.6167C34.6479 82.0285 34.483 82.4228 34.1912 82.714C33.8993 83.0052 33.504 83.1696 33.0912 83.1716Z" fill="#9B9B9B"/>
<path id="Vector_32" d="M33.0912 96.526C32.7829 96.526 32.4816 96.4348 32.2252 96.264C31.9689 96.0931 31.7691 95.8503 31.6512 95.5661C31.5332 95.282 31.5023 94.9694 31.5625 94.6678C31.6226 94.3661 31.7711 94.0891 31.9891 93.8716C32.207 93.6541 32.4848 93.5061 32.7871 93.4461C33.0895 93.3861 33.4029 93.4169 33.6877 93.5345C33.9725 93.6522 34.2158 93.8515 34.3871 94.1072C34.5583 94.3629 34.6498 94.6636 34.6498 94.9711C34.6498 95.3835 34.4856 95.779 34.1933 96.0706C33.901 96.3622 33.5046 96.526 33.0912 96.526Z" fill="#9B9B9B"/>
<path id="Vector_33" d="M79.3289 4.12387C79.0206 4.12387 78.7193 4.03268 78.463 3.86182C78.2067 3.69097 78.0069 3.44812 77.8889 3.164C77.7709 2.87987 77.7401 2.56723 77.8002 2.26561C77.8604 1.96398 78.0088 1.68692 78.2268 1.46946C78.4448 1.252 78.7225 1.10391 79.0248 1.04392C79.3272 0.983919 79.6406 1.01471 79.9254 1.1324C80.2102 1.25009 80.4536 1.44939 80.6249 1.70509C80.7962 1.9608 80.8876 2.26142 80.8876 2.56896C80.8856 2.98074 80.7208 3.37511 80.4289 3.66629C80.137 3.95747 79.7417 4.12192 79.3289 4.12387Z" fill="#9B9B9B"/>
<path id="Vector_34" d="M79.3289 17.4782C79.0203 17.4782 78.7187 17.3868 78.4622 17.2157C78.2057 17.0445 78.006 16.8012 77.8882 16.5166C77.7705 16.2321 77.74 15.919 77.8008 15.6172C77.8615 15.3154 78.0107 15.0384 78.2294 14.8212C78.4482 14.604 78.7266 14.4565 79.0294 14.3974C79.3323 14.3382 79.6459 14.3701 79.9306 14.4889C80.2153 14.6077 80.4582 14.8082 80.6285 15.0649C80.7989 15.3216 80.8891 15.6229 80.8876 15.9308C80.8856 16.3419 80.7205 16.7354 80.4284 17.0254C80.1363 17.3154 79.741 17.4782 79.3289 17.4782Z" fill="#9B9B9B"/>
<path id="Vector_35" d="M79.3289 30.8401C79.0206 30.8401 78.7193 30.7489 78.463 30.5781C78.2067 30.4072 78.0069 30.1644 77.8889 29.8802C77.7709 29.5961 77.7401 29.2835 77.8002 28.9818C77.8604 28.6802 78.0088 28.4032 78.2268 28.1857C78.4448 27.9682 78.7225 27.8201 79.0248 27.7601C79.3272 27.7001 79.6406 27.7309 79.9254 27.8486C80.2102 27.9663 80.4536 28.1656 80.6249 28.4213C80.7962 28.677 80.8876 28.9777 80.8876 29.2852C80.8876 29.4894 80.8473 29.6916 80.7689 29.8802C80.6906 30.0689 80.5758 30.2403 80.4311 30.3847C80.2863 30.5291 80.1145 30.6436 79.9254 30.7217C79.7363 30.7999 79.5336 30.8401 79.3289 30.8401Z" fill="#9B9B9B"/>
<path id="Vector_36" d="M79.329 44.202C79.0195 44.2019 78.717 44.1099 78.46 43.9377C78.2031 43.7655 78.0034 43.5209 77.8864 43.235C77.7693 42.9491 77.7403 42.635 77.8029 42.3326C77.8655 42.0302 78.0169 41.7532 78.2379 41.537C78.4588 41.3208 78.7394 41.1751 79.0436 41.1185C79.3479 41.0619 79.6622 41.0969 79.9465 41.2192C80.2307 41.3415 80.472 41.5454 80.6396 41.805C80.8072 42.0646 80.8936 42.3681 80.8877 42.6768C80.878 43.0834 80.7097 43.4702 80.4187 43.755C80.1276 44.0398 79.7367 44.2001 79.329 44.202Z" fill="#9B9B9B"/>
<path id="Vector_37" d="M79.3289 57.1918C79.0206 57.1918 78.7193 57.1006 78.463 56.9298C78.2067 56.7589 78.0069 56.5161 77.8889 56.232C77.7709 55.9478 77.7401 55.6352 77.8002 55.3336C77.8604 55.032 78.0088 54.7549 78.2268 54.5374C78.4448 54.32 78.7225 54.1719 79.0248 54.1119C79.3272 54.0519 79.6406 54.0827 79.9254 54.2004C80.2102 54.3181 80.4536 54.5174 80.6249 54.7731C80.7962 55.0288 80.8876 55.3294 80.8876 55.6369C80.8876 56.0493 80.7234 56.4448 80.4311 56.7364C80.1388 57.028 79.7423 57.1918 79.3289 57.1918Z" fill="#9B9B9B"/>
<path id="Vector_38" d="M79.3289 70.5538C79.0206 70.5538 78.7193 70.4626 78.463 70.2918C78.2067 70.1209 78.0069 69.8781 77.8889 69.5939C77.7709 69.3098 77.7401 68.9972 77.8002 68.6955C77.8604 68.3939 78.0088 68.1169 78.2268 67.8994C78.4448 67.6819 78.7225 67.5338 79.0248 67.4739C79.3272 67.4139 79.6406 67.4446 79.9254 67.5623C80.2102 67.68 80.4536 67.8793 80.6249 68.135C80.7962 68.3907 80.8876 68.6914 80.8876 68.9989C80.8856 69.4107 80.7208 69.805 80.4289 70.0962C80.137 70.3874 79.7417 70.5519 79.3289 70.5538Z" fill="#9B9B9B"/>
<path id="Vector_39" d="M79.3289 83.9157C79.0206 83.9157 78.7193 83.8245 78.463 83.6536C78.2067 83.4828 78.0069 83.2399 77.8889 82.9558C77.7709 82.6717 77.7401 82.359 77.8002 82.0574C77.8604 81.7558 78.0088 81.4787 78.2268 81.2613C78.4448 81.0438 78.7225 80.8957 79.0248 80.8357C79.3272 80.7757 79.6406 80.8065 79.9254 80.9242C80.2102 81.0419 80.4536 81.2412 80.6249 81.4969C80.7962 81.7526 80.8876 82.0532 80.8876 82.3608C80.8856 82.7725 80.7208 83.1669 80.4289 83.4581C80.137 83.7493 79.7417 83.9137 79.3289 83.9157Z" fill="#9B9B9B"/>
<path id="Vector_40" d="M79.3289 97.27C79.0206 97.27 78.7193 97.1788 78.463 97.0079C78.2067 96.8371 78.0069 96.5942 77.8889 96.3101C77.7709 96.026 77.7401 95.7134 77.8002 95.4117C77.8604 95.1101 78.0088 94.833 78.2268 94.6156C78.4448 94.3981 78.7225 94.25 79.0248 94.19C79.3272 94.13 79.6406 94.1608 79.9254 94.2785C80.2102 94.3962 80.4536 94.5955 80.6249 94.8512C80.7962 95.1069 80.8876 95.4075 80.8876 95.7151C80.8876 96.1275 80.7234 96.523 80.4311 96.8146C80.1388 97.1062 79.7423 97.27 79.3289 97.27Z" fill="#9B9B9B"/>
<path id="Vector_41" d="M63.6678 4.12387C63.3595 4.12387 63.0581 4.03268 62.8018 3.86182C62.5455 3.69097 62.3457 3.44812 62.2277 3.164C62.1098 2.87987 62.0789 2.56723 62.139 2.26561C62.1992 1.96398 62.3476 1.68692 62.5656 1.46946C62.7836 1.252 63.0613 1.10391 63.3637 1.04392C63.666 0.983919 63.9794 1.01471 64.2642 1.1324C64.549 1.25009 64.7925 1.44939 64.9637 1.70509C65.135 1.9608 65.2264 2.26142 65.2264 2.56896C65.2245 2.98074 65.0596 3.37511 64.7677 3.66629C64.4758 3.95747 64.0805 4.12192 63.6678 4.12387Z" fill="#9B9B9B"/>
<path id="Vector_42" d="M63.6678 17.4782C63.3592 17.4782 63.0575 17.3868 62.801 17.2157C62.5446 17.0445 62.3448 16.8012 62.227 16.5166C62.1093 16.2321 62.0789 15.919 62.1396 15.6172C62.2004 15.3154 62.3496 15.0384 62.5683 14.8212C62.787 14.604 63.0654 14.4565 63.3683 14.3974C63.6711 14.3382 63.9847 14.3701 64.2694 14.4889C64.5541 14.6077 64.797 14.8082 64.9674 15.0649C65.1377 15.3216 65.2279 15.6229 65.2264 15.9308C65.2244 16.3419 65.0594 16.7354 64.7673 17.0254C64.4752 17.3154 64.0798 17.4782 63.6678 17.4782Z" fill="#9B9B9B"/>
<path id="Vector_43" d="M63.6678 30.8401C63.3595 30.8401 63.0581 30.7489 62.8018 30.5781C62.5455 30.4072 62.3457 30.1644 62.2277 29.8802C62.1098 29.5961 62.0789 29.2835 62.139 28.9818C62.1992 28.6802 62.3476 28.4032 62.5656 28.1857C62.7836 27.9682 63.0613 27.8201 63.3637 27.7601C63.666 27.7001 63.9794 27.7309 64.2642 27.8486C64.549 27.9663 64.7925 28.1656 64.9637 28.4213C65.135 28.677 65.2264 28.9777 65.2264 29.2852C65.2264 29.4894 65.1861 29.6916 65.1078 29.8802C65.0294 30.0689 64.9146 30.2403 64.7699 30.3847C64.6252 30.5291 64.4533 30.6436 64.2642 30.7217C64.0751 30.7999 63.8724 30.8401 63.6678 30.8401Z" fill="#9B9B9B"/>
<path id="Vector_44" d="M63.6678 44.202C63.3582 44.2019 63.0557 44.1099 62.7988 43.9377C62.5419 43.7655 62.3422 43.5209 62.2251 43.235C62.1081 42.9491 62.079 42.635 62.1416 42.3326C62.2042 42.0302 62.3556 41.7532 62.5766 41.537C62.7976 41.3208 63.0781 41.1751 63.3824 41.1185C63.6867 41.0619 64.001 41.0969 64.2852 41.2192C64.5694 41.3415 64.8107 41.5454 64.9784 41.805C65.146 42.0646 65.2323 42.3681 65.2264 42.6768C65.2167 43.0834 65.0484 43.4702 64.7574 43.755C64.4663 44.0398 64.0754 44.2001 63.6678 44.202Z" fill="#9B9B9B"/>
<path id="Vector_45" d="M63.6678 57.1918C63.3595 57.1918 63.0581 57.1006 62.8018 56.9298C62.5455 56.7589 62.3457 56.5161 62.2277 56.232C62.1098 55.9478 62.0789 55.6352 62.139 55.3336C62.1992 55.032 62.3476 54.7549 62.5656 54.5374C62.7836 54.32 63.0613 54.1719 63.3637 54.1119C63.666 54.0519 63.9794 54.0827 64.2642 54.2004C64.549 54.3181 64.7925 54.5174 64.9637 54.7731C65.135 55.0288 65.2264 55.3294 65.2264 55.6369C65.2264 56.0493 65.0622 56.4448 64.7699 56.7364C64.4776 57.028 64.0811 57.1918 63.6678 57.1918Z" fill="#9B9B9B"/>
<path id="Vector_46" d="M63.6678 70.5538C63.3595 70.5538 63.0581 70.4626 62.8018 70.2918C62.5455 70.1209 62.3457 69.8781 62.2277 69.5939C62.1098 69.3098 62.0789 68.9972 62.139 68.6955C62.1992 68.3939 62.3476 68.1169 62.5656 67.8994C62.7836 67.6819 63.0613 67.5338 63.3637 67.4739C63.666 67.4139 63.9794 67.4446 64.2642 67.5623C64.549 67.68 64.7925 67.8793 64.9637 68.135C65.135 68.3907 65.2264 68.6914 65.2264 68.9989C65.2245 69.4107 65.0596 69.805 64.7677 70.0962C64.4758 70.3874 64.0805 70.5519 63.6678 70.5538Z" fill="#9B9B9B"/>
<path id="Vector_47" d="M63.6678 83.9157C63.3595 83.9157 63.0581 83.8245 62.8018 83.6536C62.5455 83.4828 62.3457 83.2399 62.2277 82.9558C62.1098 82.6717 62.0789 82.359 62.139 82.0574C62.1992 81.7558 62.3476 81.4787 62.5656 81.2613C62.7836 81.0438 63.0613 80.8957 63.3637 80.8357C63.666 80.7757 63.9794 80.8065 64.2642 80.9242C64.549 81.0419 64.7925 81.2412 64.9637 81.4969C65.135 81.7526 65.2264 82.0532 65.2264 82.3608C65.2245 82.7725 65.0596 83.1669 64.7677 83.4581C64.4758 83.7493 64.0805 83.9137 63.6678 83.9157Z" fill="#9B9B9B"/>
<path id="Vector_48" d="M63.6678 97.27C63.3595 97.27 63.0581 97.1788 62.8018 97.0079C62.5455 96.8371 62.3457 96.5942 62.2277 96.3101C62.1098 96.026 62.0789 95.7134 62.139 95.4117C62.1992 95.1101 62.3476 94.833 62.5656 94.6156C62.7836 94.3981 63.0613 94.25 63.3637 94.19C63.666 94.13 63.9794 94.1608 64.2642 94.2785C64.549 94.3962 64.7925 94.5955 64.9637 94.8512C65.135 95.1069 65.2264 95.4075 65.2264 95.7151C65.2264 96.1275 65.0622 96.523 64.7699 96.8146C64.4776 97.1062 64.0811 97.27 63.6678 97.27Z" fill="#9B9B9B"/>
<path id="Vector_49" d="M110.651 3.37985C110.343 3.37985 110.041 3.28866 109.785 3.1178C109.529 2.94695 109.329 2.7041 109.211 2.41998C109.093 2.13585 109.062 1.82321 109.122 1.52159C109.182 1.21996 109.331 0.942904 109.549 0.725444C109.767 0.507986 110.045 0.359894 110.347 0.299898C110.649 0.239901 110.963 0.270693 111.248 0.388382C111.532 0.50607 111.776 0.705367 111.947 0.961072C112.118 1.21678 112.21 1.5174 112.21 1.82494C112.208 2.23672 112.043 2.63109 111.751 2.92227C111.459 3.21345 111.064 3.3779 110.651 3.37985Z" fill="#9B9B9B"/>
<path id="Vector_50" d="M110.651 16.7343C110.342 16.7343 110.041 16.6429 109.784 16.4717C109.528 16.3005 109.328 16.0572 109.21 15.7727C109.093 15.4881 109.062 15.1751 109.123 14.8732C109.184 14.5714 109.333 14.2944 109.552 14.0772C109.77 13.8601 110.049 13.7126 110.352 13.6534C110.654 13.5942 110.968 13.6261 111.253 13.7449C111.537 13.8638 111.78 14.0642 111.951 14.3209C112.121 14.5776 112.211 14.8789 112.21 15.1868C112.208 15.5979 112.043 15.9915 111.751 16.2815C111.458 16.5715 111.063 16.7343 110.651 16.7343Z" fill="#9B9B9B"/>
<path id="Vector_51" d="M110.651 30.0961C110.343 30.0961 110.041 30.0049 109.785 29.8341C109.529 29.6632 109.329 29.4204 109.211 29.1362C109.093 28.8521 109.062 28.5395 109.122 28.2379C109.182 27.9362 109.331 27.6592 109.549 27.4417C109.767 27.2243 110.045 27.0762 110.347 27.0162C110.649 26.9562 110.963 26.987 111.248 27.1047C111.532 27.2223 111.776 27.4216 111.947 27.6773C112.118 27.933 112.21 28.2337 112.21 28.5412C112.21 28.7454 112.169 28.9476 112.091 29.1362C112.013 29.3249 111.898 29.4963 111.753 29.6407C111.608 29.7851 111.437 29.8996 111.248 29.9778C111.058 30.0559 110.856 30.0961 110.651 30.0961Z" fill="#9B9B9B"/>
<path id="Vector_52" d="M110.651 43.458C110.342 43.4579 110.039 43.3659 109.782 43.1937C109.525 43.0215 109.325 42.7769 109.208 42.491C109.091 42.2052 109.062 41.891 109.125 41.5886C109.187 41.2862 109.339 41.0092 109.56 40.793C109.781 40.5768 110.061 40.4311 110.366 40.3745C110.67 40.3179 110.984 40.353 111.268 40.4752C111.553 40.5975 111.794 40.8014 111.962 41.061C112.129 41.3206 112.216 41.6241 112.21 41.9328C112.2 42.3394 112.032 42.7262 111.741 43.011C111.45 43.2958 111.059 43.4562 110.651 43.458Z" fill="#9B9B9B"/>
<path id="Vector_53" d="M110.651 56.4479C110.343 56.4479 110.041 56.3567 109.785 56.1858C109.529 56.015 109.329 55.7721 109.211 55.488C109.093 55.2039 109.062 54.8912 109.122 54.5896C109.182 54.288 109.331 54.0109 109.549 53.7935C109.767 53.576 110.045 53.4279 110.347 53.3679C110.649 53.3079 110.963 53.3387 111.248 53.4564C111.532 53.5741 111.776 53.7734 111.947 54.0291C112.118 54.2848 112.21 54.5854 112.21 54.8929C112.21 55.3053 112.045 55.7008 111.753 55.9924C111.461 56.284 111.064 56.4479 110.651 56.4479Z" fill="#9B9B9B"/>
<path id="Vector_54" d="M110.651 69.8097C110.343 69.8097 110.041 69.7185 109.785 69.5477C109.529 69.3768 109.329 69.134 109.211 68.8498C109.093 68.5657 109.062 68.2531 109.122 67.9515C109.182 67.6498 109.331 67.3728 109.549 67.1553C109.767 66.9379 110.045 66.7898 110.347 66.7298C110.649 66.6698 110.963 66.7006 111.248 66.8183C111.532 66.9359 111.776 67.1352 111.947 67.3909C112.118 67.6466 112.21 67.9473 112.21 68.2548C112.208 68.6666 112.043 69.061 111.751 69.3521C111.459 69.6433 111.064 69.8078 110.651 69.8097Z" fill="#9B9B9B"/>
<path id="Vector_55" d="M110.651 83.1716C110.343 83.1716 110.041 83.0804 109.785 82.9095C109.529 82.7387 109.329 82.4958 109.211 82.2117C109.093 81.9276 109.062 81.6149 109.122 81.3133C109.182 81.0117 109.331 80.7346 109.549 80.5172C109.767 80.2997 110.045 80.1516 110.347 80.0916C110.649 80.0316 110.963 80.0624 111.248 80.1801C111.532 80.2978 111.776 80.4971 111.947 80.7528C112.118 81.0085 112.21 81.3091 112.21 81.6167C112.208 82.0285 112.043 82.4228 111.751 82.714C111.459 83.0052 111.064 83.1696 110.651 83.1716Z" fill="#9B9B9B"/>
<path id="Vector_56" d="M110.651 96.526C110.343 96.526 110.041 96.4348 109.785 96.264C109.529 96.0931 109.329 95.8503 109.211 95.5661C109.093 95.282 109.062 94.9694 109.122 94.6678C109.182 94.3661 109.331 94.0891 109.549 93.8716C109.767 93.6541 110.045 93.5061 110.347 93.4461C110.649 93.3861 110.963 93.4169 111.248 93.5345C111.532 93.6522 111.776 93.8515 111.947 94.1072C112.118 94.3629 112.21 94.6636 112.21 94.9711C112.21 95.3835 112.045 95.779 111.753 96.0706C111.461 96.3622 111.064 96.526 110.651 96.526Z" fill="#9B9B9B"/>
<path id="Vector_57" d="M94.9901 3.37985C94.6818 3.37985 94.3805 3.28866 94.1241 3.1178C93.8678 2.94695 93.668 2.7041 93.5501 2.41998C93.4321 2.13585 93.4012 1.82321 93.4614 1.52159C93.5215 1.21996 93.67 0.942904 93.8879 0.725444C94.1059 0.507986 94.3837 0.359894 94.686 0.299898C94.9884 0.239901 95.3018 0.270693 95.5866 0.388382C95.8714 0.50607 96.1148 0.705367 96.2861 0.961072C96.4573 1.21678 96.5487 1.5174 96.5487 1.82494C96.5468 2.23672 96.3819 2.63109 96.0901 2.92227C95.7982 3.21345 95.4029 3.3779 94.9901 3.37985Z" fill="#9B9B9B"/>
<path id="Vector_58" d="M94.9901 16.7343C94.6815 16.7343 94.3798 16.6429 94.1234 16.4717C93.8669 16.3005 93.6671 16.0572 93.5494 15.7727C93.4316 15.4881 93.4012 15.1751 93.4619 14.8732C93.5227 14.5714 93.6719 14.2944 93.8906 14.0772C94.1093 13.8601 94.3878 13.7126 94.6906 13.6534C94.9934 13.5942 95.3071 13.6261 95.5917 13.7449C95.8764 13.8638 96.1193 14.0642 96.2897 14.3209C96.4601 14.5776 96.5502 14.8789 96.5487 15.1868C96.5468 15.5979 96.3817 15.9915 96.0896 16.2815C95.7975 16.5715 95.4022 16.7343 94.9901 16.7343Z" fill="#9B9B9B"/>
<path id="Vector_59" d="M94.9901 30.0961C94.6818 30.0961 94.3805 30.0049 94.1241 29.8341C93.8678 29.6632 93.668 29.4204 93.5501 29.1362C93.4321 28.8521 93.4012 28.5395 93.4614 28.2379C93.5215 27.9362 93.67 27.6592 93.8879 27.4417C94.1059 27.2243 94.3837 27.0762 94.686 27.0162C94.9884 26.9562 95.3018 26.987 95.5866 27.1047C95.8714 27.2223 96.1148 27.4216 96.2861 27.6773C96.4573 27.933 96.5487 28.2337 96.5487 28.5412C96.5487 28.7454 96.5084 28.9476 96.4301 29.1362C96.3518 29.3249 96.237 29.4963 96.0922 29.6407C95.9475 29.7851 95.7757 29.8996 95.5866 29.9778C95.3974 30.0559 95.1948 30.0961 94.9901 30.0961Z" fill="#9B9B9B"/>
<path id="Vector_60" d="M94.99 43.458C94.6805 43.4579 94.3779 43.3659 94.121 43.1937C93.8641 43.0215 93.6644 42.7769 93.5473 42.491C93.4303 42.2052 93.4012 41.891 93.4638 41.5886C93.5264 41.2862 93.6779 41.0092 93.8988 40.793C94.1198 40.5768 94.4003 40.4311 94.7046 40.3745C95.0089 40.3179 95.3232 40.353 95.6074 40.4752C95.8916 40.5975 96.133 40.8014 96.3006 41.061C96.4682 41.3206 96.5546 41.6241 96.5486 41.9328C96.5389 42.3394 96.3707 42.7262 96.0796 43.011C95.7886 43.2958 95.3977 43.4562 94.99 43.458Z" fill="#9B9B9B"/>
<path id="Vector_61" d="M94.9901 56.4479C94.6818 56.4479 94.3805 56.3567 94.1241 56.1858C93.8678 56.015 93.668 55.7721 93.5501 55.488C93.4321 55.2039 93.4012 54.8912 93.4614 54.5896C93.5215 54.288 93.67 54.0109 93.8879 53.7935C94.1059 53.576 94.3837 53.4279 94.686 53.3679C94.9884 53.3079 95.3018 53.3387 95.5866 53.4564C95.8714 53.5741 96.1148 53.7734 96.2861 54.0291C96.4573 54.2848 96.5487 54.5854 96.5487 54.8929C96.5487 55.3053 96.3845 55.7008 96.0922 55.9924C95.7999 56.284 95.4035 56.4479 94.9901 56.4479Z" fill="#9B9B9B"/>
<path id="Vector_62" d="M94.9901 69.8097C94.6818 69.8097 94.3805 69.7185 94.1241 69.5477C93.8678 69.3768 93.668 69.134 93.5501 68.8498C93.4321 68.5657 93.4012 68.2531 93.4614 67.9515C93.5215 67.6498 93.67 67.3728 93.8879 67.1553C94.1059 66.9379 94.3837 66.7898 94.686 66.7298C94.9884 66.6698 95.3018 66.7006 95.5866 66.8183C95.8714 66.9359 96.1148 67.1352 96.2861 67.3909C96.4573 67.6466 96.5487 67.9473 96.5487 68.2548C96.5468 68.6666 96.3819 69.061 96.0901 69.3521C95.7982 69.6433 95.4029 69.8078 94.9901 69.8097Z" fill="#9B9B9B"/>
<path id="Vector_63" d="M94.9901 83.1716C94.6818 83.1716 94.3805 83.0804 94.1241 82.9095C93.8678 82.7387 93.668 82.4958 93.5501 82.2117C93.4321 81.9276 93.4012 81.6149 93.4614 81.3133C93.5215 81.0117 93.67 80.7346 93.8879 80.5172C94.1059 80.2997 94.3837 80.1516 94.686 80.0916C94.9884 80.0316 95.3018 80.0624 95.5866 80.1801C95.8714 80.2978 96.1148 80.4971 96.2861 80.7528C96.4573 81.0085 96.5487 81.3091 96.5487 81.6167C96.5468 82.0285 96.3819 82.4228 96.0901 82.714C95.7982 83.0052 95.4029 83.1696 94.9901 83.1716Z" fill="#9B9B9B"/>
<path id="Vector_64" d="M94.9901 96.526C94.6818 96.526 94.3805 96.4348 94.1241 96.264C93.8678 96.0931 93.668 95.8503 93.5501 95.5661C93.4321 95.282 93.4012 94.9694 93.4614 94.6678C93.5215 94.3661 93.67 94.0891 93.8879 93.8716C94.1059 93.6541 94.3837 93.5061 94.686 93.4461C94.9884 93.3861 95.3018 93.4169 95.5866 93.5345C95.8714 93.6522 96.1148 93.8515 96.2861 94.1072C96.4573 94.3629 96.5487 94.6636 96.5487 94.9711C96.5487 95.3835 96.3845 95.779 96.0922 96.0706C95.7999 96.3622 95.4035 96.526 94.9901 96.526Z" fill="#9B9B9B"/>
</g>
<defs>
<clipPath id="clip0_5_79">
<rect width="112" height="97" fill="white" transform="translate(0.210205 0.27002)"/>
</clipPath>
</defs>
</svg>
