<svg width="14" height="14" viewBox="0 0 14 14" fill="none" xmlns="http://www.w3.org/2000/svg">
<path id="Vector" d="M11.43 1.58628H10.5767V1.05294C10.5767 0.946276 10.5323 0.839609 10.4434 0.732943C10.3545 0.626276 10.2389 0.572943 10.0967 0.572943C9.95448 0.572943 9.83892 0.626276 9.75003 0.732943C9.66115 0.839609 9.6167 0.946276 9.6167 1.05294V1.58628H5.24337V1.05294C5.24337 0.946276 5.19892 0.839609 5.11003 0.732943C5.02115 0.626276 4.90559 0.572943 4.76337 0.572943C4.62115 0.572943 4.50559 0.626276 4.4167 0.732943C4.32781 0.839609 4.28337 0.946276 4.28337 1.05294V1.58628H3.43003C3.07448 1.55072 2.7367 1.58628 2.4167 1.69294C2.0967 1.79961 1.81226 1.97739 1.56337 2.22628C1.31448 2.47516 1.1367 2.75961 1.03003 3.07961C0.923368 3.39961 0.887812 3.73739 0.923368 4.09294V11.0796C0.887812 11.4352 0.923368 11.7729 1.03003 12.0929C1.1367 12.4129 1.31448 12.6974 1.56337 12.9463C1.81226 13.1952 2.0967 13.3729 2.4167 13.4796C2.7367 13.5863 3.07448 13.6218 3.43003 13.5863H11.43C11.7856 13.6218 12.1234 13.5863 12.4434 13.4796C12.7634 13.3729 13.0478 13.1952 13.2967 12.9463C13.5456 12.6974 13.7234 12.4129 13.83 12.0929C13.9367 11.7729 13.9723 11.4352 13.9367 11.0796V4.09294C13.9723 3.73739 13.9367 3.39961 13.83 3.07961C13.7234 2.75961 13.5456 2.47516 13.2967 2.22628C13.0478 1.97739 12.7634 1.79961 12.4434 1.69294C12.1234 1.58628 11.7856 1.55072 11.43 1.58628ZM3.43003 2.59961H4.28337V3.07961C4.28337 3.22183 4.32781 3.33739 4.4167 3.42628C4.50559 3.51516 4.62115 3.55961 4.76337 3.55961C4.90559 3.55961 5.02115 3.51516 5.11003 3.42628C5.19892 3.33739 5.24337 3.22183 5.24337 3.07961V2.59961H9.6167V3.07961C9.6167 3.22183 9.66115 3.33739 9.75003 3.42628C9.83892 3.51516 9.95448 3.55961 10.0967 3.55961C10.2389 3.55961 10.3545 3.51516 10.4434 3.42628C10.5323 3.33739 10.5767 3.22183 10.5767 3.07961V2.59961H11.43C11.9634 2.59961 12.3456 2.71516 12.5767 2.94628C12.8078 3.17739 12.9234 3.55961 12.9234 4.09294V4.57294H1.9367V4.09294C1.9367 3.55961 2.05226 3.17739 2.28337 2.94628C2.51448 2.71516 2.8967 2.59961 3.43003 2.59961ZM11.43 12.5729H3.43003C2.8967 12.5729 2.51448 12.4574 2.28337 12.2263C2.05226 11.9952 1.9367 11.6129 1.9367 11.0796V5.58628H12.9234V11.0796C12.9234 11.6129 12.8078 11.9952 12.5767 12.2263C12.3456 12.4574 11.9634 12.5729 11.43 12.5729ZM5.4567 7.71961C5.4567 7.93294 5.38559 8.10183 5.24337 8.22628C5.10115 8.35072 4.94115 8.41294 4.76337 8.41294C4.58559 8.41294 4.43448 8.35072 4.31003 8.22628C4.18559 8.10183 4.12337 7.94183 4.12337 7.74628C4.12337 7.55072 4.18559 7.39072 4.31003 7.26628C4.43448 7.14183 4.58559 7.07961 4.76337 7.07961C4.94115 7.07961 5.10115 7.14183 5.24337 7.26628C5.38559 7.39072 5.4567 7.54183 5.4567 7.71961ZM8.12337 7.71961C8.12337 7.93294 8.05226 8.10183 7.91003 8.22628C7.76781 8.35072 7.60781 8.41294 7.43003 8.41294C7.25226 8.41294 7.10115 8.35072 6.9767 8.22628C6.85226 8.10183 6.79003 7.94183 6.79003 7.74628C6.79003 7.55072 6.85226 7.39072 6.9767 7.26628C7.10115 7.14183 7.25226 7.07961 7.43003 7.07961C7.60781 7.07961 7.76781 7.14183 7.91003 7.26628C8.05226 7.39072 8.12337 7.54183 8.12337 7.71961ZM10.79 7.71961C10.79 7.93294 10.7189 8.10183 10.5767 8.22628C10.4345 8.35072 10.2745 8.41294 10.0967 8.41294C9.91892 8.41294 9.76781 8.35072 9.64337 8.22628C9.51892 8.10183 9.4567 7.94183 9.4567 7.74628C9.4567 7.55072 9.51892 7.39072 9.64337 7.26628C9.76781 7.14183 9.91892 7.07961 10.0967 7.07961C10.2745 7.07961 10.4345 7.14183 10.5767 7.26628C10.7189 7.39072 10.79 7.54183 10.79 7.71961ZM5.4567 10.3863C5.4567 10.5996 5.38559 10.7685 5.24337 10.8929C5.10115 11.0174 4.94115 11.0796 4.76337 11.0796C4.58559 11.0796 4.43448 11.0174 4.31003 10.8929C4.18559 10.7685 4.12337 10.6085 4.12337 10.4129C4.12337 10.2174 4.18559 10.0574 4.31003 9.93294C4.43448 9.8085 4.58559 9.74628 4.76337 9.74628C4.94115 9.74628 5.10115 9.8085 5.24337 9.93294C5.38559 10.0574 5.4567 10.2085 5.4567 10.3863ZM8.12337 10.3863C8.12337 10.5996 8.05226 10.7685 7.91003 10.8929C7.76781 11.0174 7.60781 11.0796 7.43003 11.0796C7.25226 11.0796 7.10115 11.0174 6.9767 10.8929C6.85226 10.7685 6.79003 10.6085 6.79003 10.4129C6.79003 10.2174 6.85226 10.0574 6.9767 9.93294C7.10115 9.8085 7.25226 9.74628 7.43003 9.74628C7.60781 9.74628 7.76781 9.8085 7.91003 9.93294C8.05226 10.0574 8.12337 10.2085 8.12337 10.3863ZM10.79 10.3863C10.79 10.5996 10.7189 10.7685 10.5767 10.8929C10.4345 11.0174 10.2745 11.0796 10.0967 11.0796C9.91892 11.0796 9.76781 11.0174 9.64337 10.8929C9.51892 10.7685 9.4567 10.6085 9.4567 10.4129C9.4567 10.2174 9.51892 10.0574 9.64337 9.93294C9.76781 9.8085 9.91892 9.74628 10.0967 9.74628C10.2745 9.74628 10.4345 9.8085 10.5767 9.93294C10.7189 10.0574 10.79 10.2085 10.79 10.3863Z" fill="#1363DF"/>
</svg>
