<svg width="66" height="36" viewBox="0 0 66 36" fill="none" xmlns="http://www.w3.org/2000/svg">
<path id="Vector" d="M6.90992 29.0404C6.9098 29.0767 6.9098 29.0767 6.90992 29.0404V29.0404ZM1.00683 24.1683C0.812015 24.5665 0.733275 24.965 1.04143 25.3644C0.963554 25.5092 0.885798 25.6178 0.769229 25.7624C0.574787 26.0519 0.612492 26.342 0.727566 26.6322C0.766014 26.7048 0.920397 26.8139 0.959217 26.7778C1.3078 26.67 1.7716 26.8161 2.00499 26.4543C2.12094 26.4908 2.19819 26.5273 2.31414 26.5638C2.04194 26.9618 1.53797 27.2505 1.72956 27.7947C1.96158 27.8315 2.15492 27.8683 2.34837 27.8688C2.4637 28.0865 2.50177 28.2678 2.38508 28.4488C2.38483 28.5213 2.34577 28.6299 2.38434 28.6662C2.53848 28.8479 2.73131 29.0296 2.92427 29.1751C3.0401 29.2479 3.23318 29.3571 3.34938 29.3212C4.27821 29.2511 5.24585 29.1448 6.17467 29.0747C6.40694 29.0391 6.63909 29.0397 6.87123 29.0403C6.83341 28.7865 7.02699 28.7507 7.22045 28.7512C7.25913 28.7513 7.29745 28.8602 7.37446 28.9691C7.21957 29.005 7.06468 29.0408 6.87111 29.0766C7.026 29.0407 7.21957 29.005 7.37446 28.9691L8.22566 28.9713C8.03183 29.0796 7.95433 29.1156 7.83813 29.1515C7.91539 29.188 7.99265 29.2244 8.0699 29.2609C7.99116 29.6594 7.8736 30.094 8.2207 30.4211C7.90993 30.7828 7.83131 31.145 8.0234 31.5442C8.60389 31.5095 8.9908 31.5105 9.26126 31.6199C9.22232 31.6923 9.18339 31.7647 9.14445 31.8371C9.10539 31.9457 9.02776 32.018 8.98869 32.1266C8.87175 32.38 8.94864 32.5252 9.25804 32.5623C9.29673 32.5624 9.33542 32.5625 9.41281 32.5627C9.64495 32.5633 9.72196 32.6722 9.68253 32.8896C9.64346 32.9982 9.60428 33.1431 9.68154 33.1795C9.83568 33.3612 10.0284 33.5791 10.2602 33.6885C10.4532 33.7977 10.6854 33.7983 10.9177 33.7627C11.7692 33.6561 12.5822 33.5133 13.4339 33.3705C13.8598 33.2991 14.2859 33.1552 14.7106 33.41C14.711 33.3013 14.7499 33.2289 14.7501 33.1927C14.9438 33.1207 15.176 33.085 15.3697 33.013C16.067 32.7611 16.7643 32.5092 17.4618 32.2211C18.5465 31.8252 19.6313 31.393 20.7161 30.9609C21.026 30.853 21.3749 30.6726 21.6463 30.4921C21.9566 30.2755 22.3051 30.2039 22.7308 30.1687C22.6917 30.2774 22.6915 30.3498 22.6527 30.386C22.4971 30.6031 22.2643 30.8199 22.1473 31.0733C22.0303 31.363 22.0291 31.6892 21.9893 32.0153C21.9496 32.3052 21.8713 32.5949 21.8316 32.8848C21.7924 33.0297 21.7918 33.2109 21.7913 33.3559C22.0619 33.4291 22.2939 33.4659 22.6032 33.5392C22.6026 33.7204 22.6019 33.9016 22.5626 34.0828C22.5232 34.3001 22.6001 34.4453 22.7933 34.5183C23.0639 34.5915 23.0633 34.7727 23.0238 34.9901C23.0238 34.9901 23.0239 34.9538 23.0626 34.9539C23.1401 34.9179 23.2176 34.8819 23.2565 34.8457C23.2563 34.882 23.2562 34.9182 23.2561 34.9545C23.1787 34.9543 23.1013 34.954 23.0238 34.9901C23.0624 35.0264 23.1396 35.0629 23.1394 35.1354C23.2919 35.7882 23.7947 35.862 24.3363 35.8634C25.0329 35.8289 25.7295 35.7945 26.426 35.7601C27.0452 35.7254 27.6652 35.4371 28.3227 35.5112C28.4388 35.5115 28.5551 35.4394 28.6713 35.4034C28.6714 35.3672 28.6714 35.3672 28.6716 35.3309L28.362 35.3301C28.3622 35.2939 28.3622 35.2939 28.3623 35.2576C28.6721 35.1859 29.0206 35.0781 29.3304 35.0064C29.1752 35.151 28.9817 35.1505 28.9036 35.3678C29.0198 35.3318 29.0972 35.332 29.1747 35.296C29.7557 35.1163 30.3368 34.9003 30.879 34.7205C31.3051 34.5766 31.7314 34.3965 32.119 34.18C32.8555 33.7832 33.7076 33.5317 34.4056 33.0623C34.5994 32.9541 34.7538 33.0632 34.7531 33.2807C34.7527 33.3894 34.7137 33.4981 34.6746 33.6067L34.7133 33.6068C34.7913 33.4258 34.8692 33.281 34.9859 33.1001C35.063 33.1728 35.1401 33.2454 35.2173 33.3181C35.3725 33.1736 35.5279 32.9927 35.6445 32.8481C35.6828 32.9569 35.721 33.102 35.6822 33.1381C35.4883 33.2463 35.6033 33.5729 35.3323 33.6084C35.3317 33.7896 35.3697 34.0072 35.3689 34.2247C35.5241 34.1163 35.6405 34.0079 35.7958 33.8633C35.8331 34.2621 35.639 34.4428 35.4838 34.5874C35.5604 34.8051 35.6757 35.0228 35.7138 35.2042C35.751 35.6392 35.7896 35.6756 36.2152 35.6767C36.3312 35.677 36.4474 35.641 36.6022 35.6414C36.7183 35.6417 36.8732 35.6059 36.9503 35.6786C37.2206 35.8242 37.4916 35.7887 37.8014 35.717C37.9564 35.6449 38.1114 35.5728 38.2663 35.537C38.4987 35.4651 38.7308 35.4657 38.9236 35.6474C38.9622 35.6838 39.1171 35.6479 39.233 35.6845C39.1949 35.5394 39.1564 35.4668 39.118 35.3942C39.6994 35.0695 39.6994 35.0695 40.0464 35.4329C40.1239 35.3968 40.2014 35.3608 40.2789 35.3247C40.1248 35.1431 40.2797 35.1073 40.4346 35.0714C40.6668 35.0358 40.8609 34.855 41.0924 35.0369C41.131 35.0732 41.2473 35.001 41.2861 34.9649C41.5188 34.8205 41.7514 34.6761 41.9841 34.5317C42.1004 34.4596 42.2168 34.3511 42.4102 34.3879C42.4874 34.4243 42.6037 34.3521 42.6812 34.3161C43.1463 34.0998 43.5726 33.8834 44.0376 33.6672C44.4252 33.487 44.8511 33.3793 45.2002 33.1265C45.7433 32.7292 46.3247 32.4045 46.9062 32.0798C47.3326 31.8634 47.759 31.6108 48.1855 31.3582C48.2243 31.3221 48.263 31.3222 48.3404 31.3224C48.4178 31.3226 48.9985 31.2153 49.0761 31.1431C49.2701 30.9986 49.6183 30.9995 49.6194 30.6733C49.89 30.7465 49.8522 30.4926 49.9299 30.3841C50.1623 30.3122 50.4332 30.3129 50.5883 30.2046C51.0149 29.9157 51.4029 29.5905 51.7911 29.2291C52.0626 29.0123 52.2571 28.7229 52.4902 28.4335C52.6456 28.2527 52.8009 28.1081 52.9947 27.9999C53.1498 27.8915 53.3048 27.8194 53.46 27.7111C53.6539 27.5666 53.848 27.3859 54.0419 27.2414C54.3521 27.061 54.6237 26.8442 54.625 26.4455C54.896 26.41 55.1283 26.3744 55.0517 26.1204C55.2845 25.9398 55.4399 25.759 55.6338 25.6145C55.7502 25.5423 55.8665 25.4701 55.9442 25.3616C56.0607 25.2532 56.2932 25.145 56.2936 25.0363C56.2947 24.7101 56.6047 24.5659 56.7989 24.3489C57.2648 23.879 57.7692 23.4816 58.1964 23.0115C58.8563 22.3608 59.5164 21.6738 60.1765 20.9869C60.6811 20.517 61.1856 20.0834 61.6902 19.6135C62.2336 19.1075 62.7384 18.5651 63.282 18.0228C63.9803 17.4809 64.6401 16.8665 65.2613 16.2519C65.1462 15.9617 65.0697 15.7077 65.0316 15.5264C64.8385 15.4172 64.6452 15.3804 64.6456 15.2717C64.6461 15.1267 64.7626 14.982 64.8017 14.8734C64.4927 14.7276 64.2222 14.6182 63.913 14.5087C63.8355 14.5447 63.6805 14.6168 63.5255 14.6889C63.4881 14.3263 63.8363 14.3272 64.0304 14.1465C63.7985 14.0734 63.5662 14.1091 63.4118 13.9999C63.2574 13.8908 63.1421 13.673 63.0264 13.564C62.7166 13.6357 62.4455 13.7075 62.1744 13.7793C62.0195 13.8151 61.8643 13.9597 61.7103 13.7418C61.7104 13.7056 61.5555 13.7414 61.4393 13.7773C61.3619 13.7771 61.2844 13.8132 61.207 13.813C61.1692 13.5592 61.5949 13.524 61.4799 13.2338C61.3635 13.306 61.2471 13.4144 61.1306 13.5228C61.0922 13.4502 61.0538 13.3777 61.0926 13.3415C61.2098 13.0156 61.2883 12.6896 61.4441 12.3638C61.483 12.3277 61.5992 12.2917 61.638 12.2556C61.5998 12.1105 61.6003 11.9655 61.5619 11.8567C61.5624 11.7117 61.4852 11.6752 61.3303 11.7111C61.2529 11.7109 61.1754 11.7469 61.1754 11.7469C61.0216 11.4566 60.8676 11.2387 60.7522 11.0572C60.8691 10.8038 60.9472 10.5865 61.0254 10.3693C60.7166 10.151 60.4465 9.93282 60.1764 9.71465C60.099 9.71445 59.9828 9.7504 59.8666 9.78634C59.8669 9.71385 59.8671 9.64136 59.8674 9.56887C60.024 9.0256 59.9093 8.62661 59.3298 8.37139C59.2525 8.33494 59.0983 8.18956 59.1371 8.15342C59.254 7.9 59.0221 7.82691 58.9065 7.68163C58.5214 7.1732 57.8254 7.02642 57.2826 7.35122C57.1663 7.42341 57.0115 7.42301 56.8955 7.42271C56.779 7.53115 56.6623 7.71207 56.5072 7.8204C56.3521 7.92874 56.1199 7.92814 56.043 7.78296C55.9664 7.56529 55.7731 7.52854 55.6186 7.45565C55.8519 7.0938 56.2767 7.34862 56.4707 7.16789C56.4327 6.98657 56.3945 6.84149 56.3562 6.73266C56.2398 6.80485 56.1622 6.87714 56.046 6.91308C55.1546 7.34571 54.3404 7.85104 53.6032 8.4653C52.1286 9.73006 50.6926 11.0311 49.2565 12.3322C49.1789 12.4045 49.1014 12.4406 49.0238 12.5129C48.9852 12.4765 48.9852 12.4765 48.9466 12.4402C49.0244 12.3316 49.1023 12.1869 49.18 12.0783C49.802 11.2101 50.4626 10.3782 51.046 9.50979C51.4349 8.93087 51.7851 8.35186 52.1354 7.73659C52.291 7.48328 52.4081 7.19362 52.3705 6.86732C52.216 6.79443 52.1003 6.68539 51.9072 6.57616C52.0621 6.54031 52.1396 6.50427 52.2946 6.43218C51.9469 6.2863 51.7537 6.21331 51.5219 6.10397L51.5234 5.66903C51.4073 5.66873 51.2913 5.66843 51.1752 5.66813C51.2922 5.37847 51.2922 5.37847 51.9115 5.30758C51.6411 5.19815 51.4866 5.12526 51.2934 5.05227C51.4878 4.76281 51.2562 4.61723 50.9857 4.5078C50.7926 4.39856 50.5995 4.28932 50.4451 4.18019C50.2901 4.25228 50.1351 4.32437 49.9414 4.39635C49.9425 4.07015 49.9434 3.81643 49.9443 3.56272C49.9454 3.23652 49.7527 3.01855 49.4826 2.80038C49.3669 2.69134 49.1735 2.6546 48.9803 2.58161C49.0194 2.47297 49.0585 2.36434 49.0975 2.2557C48.9815 2.2554 48.8654 2.2551 48.7492 2.29104C48.5192 1.67428 48.4806 1.63793 47.8227 1.67248C47.784 1.67238 47.7066 1.67218 47.7068 1.63593C47.5913 1.4544 47.475 1.5266 47.32 1.59869C47.0487 1.74297 46.816 1.88734 46.5446 2.06786C46.4675 1.95893 46.3517 1.88614 46.2747 1.77721C46.1204 1.63182 46.0049 1.48654 45.8506 1.34116C45.618 1.48554 45.3856 1.55743 45.1916 1.70191C43.2525 3.03796 41.5062 4.55574 39.7599 6.07352C38.9836 6.79642 38.1686 7.51921 37.3924 8.20586C37.3148 8.27815 37.1986 8.3141 37.0435 8.42243C37.0055 8.20486 36.9673 8.05978 36.9678 7.9148C37.0074 7.66119 36.8918 7.51591 36.6599 7.44282C36.544 7.40627 36.4671 7.26109 36.3898 7.22465C36.3503 7.47826 36.3503 7.47826 35.9635 7.44101C36.0424 7.00628 36.0825 6.57144 36.1615 6.10045C36.0841 6.10025 36.0068 6.10005 35.9293 6.1361C35.8518 6.17214 35.7741 6.24443 35.7356 6.20808C35.3491 6.0621 35.0774 6.31512 34.7675 6.42305C34.6125 6.49514 34.4961 6.60357 34.3413 6.60317C34.3809 6.34956 34.4591 6.09604 34.4212 5.87848C34.384 5.44344 34.4243 4.97235 34.3097 4.53711L34.3098 4.50087C34.349 4.35599 34.4268 4.24746 34.466 4.10258C34.0408 3.95649 33.6921 4.10057 33.421 4.17236C33.228 4.06312 33.0349 3.95389 32.8418 3.84465C32.9968 3.77256 33.113 3.73662 33.1905 3.70057C33.0364 3.51895 32.8822 3.33733 32.728 3.19195C32.6508 3.11926 32.4963 3.04637 32.3802 3.04607C32.2255 3.04566 32.0318 3.11765 31.8768 3.18974C31.373 3.40591 30.8692 3.65832 30.3653 3.91073C30.2891 3.58433 30.5997 3.25893 30.2137 3.00421C30.3687 2.93212 30.5237 2.86003 30.64 2.78784C30.6401 2.7516 30.6016 2.71525 30.6016 2.71525C30.214 2.89548 29.8268 3.00321 29.4778 3.21978C28.7413 3.61657 28.0047 4.0496 27.3069 4.4465C27.0743 4.59087 26.8424 4.51778 26.7265 4.44499C26.2635 4.08134 25.7606 4.04379 25.1417 4.00595C25.2595 3.49882 25.0677 3.02713 25.2242 2.52011C25.3803 2.12181 25.2262 1.94019 24.762 1.90274C24.6459 1.90244 24.4913 1.8658 24.3751 1.90174C24.2203 1.90134 24.1044 1.86479 23.9887 1.75576C23.7574 1.50144 23.5261 1.24712 23.2947 1.02905C23.2176 0.956365 23.1016 0.919817 22.9856 0.919517C22.7533 0.955163 22.5211 0.954562 22.2886 1.06269C22.0174 1.17073 21.746 1.35125 21.4358 1.53168C21.5139 1.3144 21.5531 1.16953 21.5924 0.988401C21.2048 1.20487 21.1645 1.67596 20.7767 1.92867C20.8161 1.7113 20.8941 1.53027 20.8949 1.3128C20.8955 1.13158 20.8187 0.950155 20.7421 0.732483C20.9744 0.696837 21.2066 0.661195 21.4002 0.625453C21.1298 0.516018 21.1298 0.516018 20.8972 0.624151C20.471 0.804273 20.0449 0.948151 19.6958 1.20096C18.7652 1.81472 17.8342 2.50098 16.9034 3.15098C16.7483 3.25931 16.593 3.40389 16.3603 3.58452C16.5538 3.54877 16.6312 3.54897 16.7086 3.54917C16.8244 3.62196 16.9404 3.65851 17.0949 3.7314C17.0171 3.83993 16.9393 3.98471 16.8228 4.09315C16.5511 4.34616 16.125 4.49004 16.0463 4.88853C16.0461 4.92478 16.0075 4.92468 15.9688 4.92458C15.232 5.39386 14.5337 5.93573 13.9511 6.58663C13.7958 6.76746 13.7567 6.87609 13.7948 7.05742C14.5688 6.98693 14.6848 7.02347 14.8775 7.24144C14.6837 7.34968 14.3739 7.42137 14.2572 7.60229C14.1405 7.78322 14.0627 7.89175 13.8302 7.99988C13.6752 8.07197 13.6359 8.2531 13.7515 8.39838C13.8284 8.54356 13.9834 8.47147 14.0997 8.39928C14.2547 8.32719 14.3712 8.21876 14.526 8.18291C14.5649 8.14677 14.6807 8.21956 14.7194 8.21966C14.6804 8.29205 14.6802 8.36454 14.6414 8.40068C14.5637 8.47297 14.4475 8.50892 14.3699 8.58121C14.2923 8.6535 14.1373 8.72558 14.137 8.79807C14.1749 9.05189 13.9813 9.08763 13.8263 9.15972C13.7099 9.23191 13.5936 9.3041 13.4773 9.37629C13.5541 9.55771 13.5923 9.70279 13.6305 9.84788C13.5916 9.88402 13.5527 9.95641 13.5526 9.99265C11.4951 11.9808 9.47651 13.9328 7.41908 15.921C6.52634 16.7523 5.6336 17.5836 4.77943 18.4513C4.39128 18.8127 4.0417 19.2105 3.84651 19.7175C3.76851 19.8985 3.65169 20.1156 3.49643 20.2602C2.91409 20.8386 2.29305 21.417 1.71071 21.9954C1.36125 22.3569 1.01191 22.6822 0.778152 23.1528C0.700032 23.3701 0.660724 23.5512 0.853562 23.7329C1.20202 23.6613 1.16259 23.8787 1.00683 24.1683ZM22.1028 32.7768C22.1794 32.9944 22.2562 33.1758 22.2943 33.3572C21.9072 33.3924 21.8687 33.3561 22.1028 32.7768ZM62.8307 14.2159C62.8308 14.1796 62.947 14.1437 62.9858 14.1076C63.0243 14.1802 63.1014 14.2528 63.1013 14.2891C63.0622 14.3977 62.9845 14.5063 62.9068 14.5785C62.8681 14.5784 62.8296 14.5421 62.8296 14.5421C62.8299 14.4334 62.7916 14.3245 62.8307 14.2159ZM60.7168 10.0785C60.5613 10.2956 60.8701 10.5138 60.5601 10.658C60.4447 10.4402 60.3293 10.2587 60.1753 10.0409C60.3687 10.0414 60.4847 10.0779 60.7168 10.0785ZM59.6381 8.73464C59.6376 8.87962 59.6758 9.0247 59.6754 9.13343C59.6367 9.13333 59.5979 9.16948 59.5979 9.16948C59.5208 9.09679 59.4049 9.024 59.2505 8.91486C59.4055 8.84277 59.4831 8.80673 59.6381 8.73464ZM59.2489 9.38604C59.4031 9.56767 59.4411 9.749 59.2473 9.85723C59.2086 9.85713 59.1701 9.82078 59.1314 9.82068C59.132 9.63946 59.2097 9.53092 59.2489 9.38604ZM57.7851 7.4975C58.0565 7.35323 58.4045 7.39037 58.6748 7.5723C58.4812 7.60804 58.2876 7.64378 58.0939 7.71577C57.9002 7.78776 57.7065 7.85975 57.5514 7.96809C57.5128 7.93174 57.4742 7.8954 57.4357 7.85905C57.5521 7.75062 57.6301 7.56959 57.7851 7.4975ZM54.455 8.28628C54.5713 8.21409 54.6876 8.1419 54.7266 8.06951C54.9214 7.67132 55.3467 7.74491 55.7728 7.60103C55.5394 7.96288 55.5378 8.43406 54.9194 8.25123C54.8421 8.21479 54.7644 8.32333 54.6869 8.35937C54.2603 8.64823 53.8336 8.97333 53.4457 9.26229C53.4071 9.22594 53.4071 9.22594 53.3685 9.1896C53.7566 8.86439 54.1058 8.57533 54.455 8.28628ZM50.5517 29.5883C50.5515 29.6608 50.5512 29.7333 50.5511 29.7696C50.5118 29.9507 50.4346 29.878 50.2414 29.805C50.3579 29.6966 50.4354 29.6605 50.5517 29.5883ZM51.9836 6.86632C52.2148 7.15688 52.1752 7.41049 51.7092 7.91672C51.8264 7.59081 51.905 7.22857 51.9836 6.86632ZM50.7533 4.57968C50.8307 4.57988 50.869 4.68872 50.9463 4.72516C50.8688 4.76121 50.791 4.86974 50.7523 4.86964C50.6364 4.8331 50.5592 4.76041 50.366 4.68742C50.5597 4.61543 50.6372 4.57938 50.7533 4.57968ZM49.4426 3.16273C49.6748 3.16333 49.6355 3.34445 49.5962 3.52557L49.248 3.52467C49.1326 3.3069 49.2105 3.16213 49.4426 3.16273ZM49.2077 3.99576L49.2463 3.99586C49.2074 4.06825 49.207 4.17698 49.1681 4.24937C49.1294 4.24927 49.1294 4.24927 49.0908 4.21293C49.1296 4.17678 49.1687 4.06815 49.2077 3.99576ZM47.8995 1.8539C47.8989 2.03513 47.9371 2.18021 47.8981 2.2526C47.7426 2.46966 47.5101 2.5778 47.1233 2.54055C47.395 2.28754 47.6278 2.10692 47.8995 1.8539ZM45.5008 1.81145C45.7719 1.73966 46.004 1.74026 46.275 1.70472C46.2745 1.8497 46.3127 1.99478 46.312 2.176C46.2733 2.1759 46.2345 2.21204 46.2345 2.21204C46.1961 2.13945 46.1575 2.10311 46.0805 1.99418C46.0414 2.10281 46.0025 2.1752 45.9636 2.24759C45.6929 2.21064 45.4223 2.13745 45.1516 2.10051C45.1909 1.91938 45.3459 1.84729 45.5008 1.81145ZM45.3056 2.31838C45.2664 2.46326 45.3046 2.60833 45.2271 2.64438C45.1106 2.75281 44.9942 2.86125 44.8393 2.89709C44.2969 3.11316 43.8701 3.47451 43.4432 3.83585C43.2493 3.98033 43.0554 4.08857 42.8615 4.23304C42.8229 4.1967 42.823 4.16046 42.7845 4.12411C43.5991 3.51005 44.2979 2.8232 45.3056 2.31838ZM41.4648 5.35303C41.6982 4.99118 42.0471 4.77462 42.4348 4.55815C42.2014 4.92 41.8522 5.20905 41.4645 5.42552C41.4645 5.42552 41.426 5.38917 41.4648 5.35303ZM41.4257 5.46167C41.348 5.5702 41.2703 5.64249 41.1149 5.82331C41.232 5.53366 41.232 5.53366 41.4257 5.46167ZM36.7586 35.1706C36.5645 35.3514 36.5645 35.3514 36.2162 35.3867C36.2163 35.3505 36.1777 35.3141 36.1778 35.2779C36.3714 35.2421 36.5263 35.2063 36.7586 35.1706ZM36.6205 7.66018C36.6973 7.84161 36.6194 7.98639 36.4645 8.02223C36.2709 8.05798 36.0776 8.02123 36.0011 7.76732C36.2333 7.73167 36.4269 7.69593 36.6205 7.66018ZM33.5754 4.2815C33.7306 4.17316 33.9243 4.10117 34.079 4.10158C34.2725 4.10208 34.2719 4.2833 34.3101 4.42838C34.116 4.6091 33.8837 4.64475 33.6518 4.57165C33.536 4.49887 33.4592 4.31744 33.5754 4.2815ZM32.0812 33.9262C32.0424 33.9623 32.0037 33.9622 31.965 33.9621C31.9263 33.962 31.8877 33.9257 31.8106 33.853C31.9268 33.817 31.9655 33.8171 32.0042 33.8172C32.0427 33.8536 32.0812 33.9262 32.0812 33.9262ZM31.9126 4.02347C31.9124 4.09596 31.9509 4.13231 31.9508 4.16855C31.8732 4.24084 31.757 4.27679 31.6793 4.34908C31.6408 4.31273 31.6409 4.27649 31.6023 4.24014C31.68 4.16785 31.7963 4.09566 31.9126 4.02347ZM30.8421 34.2129C30.8809 34.1768 30.9582 34.2132 31.0744 34.1773C30.9966 34.2858 30.9578 34.322 30.919 34.3581C30.8802 34.3943 30.8029 34.3578 30.6868 34.3575C30.7645 34.2852 30.8033 34.2491 30.8421 34.2129ZM29.4361 4.08956C29.4363 4.05331 29.4364 4.01706 29.4365 3.98082C29.5139 3.98102 29.5913 3.98122 29.6687 3.98142C29.6687 3.98142 29.6685 4.01766 29.6684 4.05391L29.4361 4.08956ZM30.0966 3.29387C30.1353 3.29397 30.174 3.29407 30.2126 3.33041C30.1733 3.51154 30.1339 3.69266 30.0943 3.98252C29.8632 3.65572 30.0572 3.51124 30.0966 3.29387ZM29.7483 3.32921C29.9803 3.36606 29.941 3.54718 29.8244 3.69186C29.6697 3.69146 29.5149 3.69106 29.3216 3.65431C29.3997 3.43704 29.5162 3.29237 29.7483 3.32921ZM29.1264 4.16124C29.0874 4.23363 29.0871 4.34237 29.0097 4.34217C28.4283 4.63062 27.8855 4.95543 27.3042 5.24388C27.7702 4.73766 28.8168 4.16044 29.1264 4.16124ZM26.2631 4.19007C26.3791 4.22662 26.4562 4.29931 26.5722 4.33586C26.572 4.3721 26.5719 4.40834 26.5332 4.40824C26.4558 4.40804 26.4171 4.40795 26.3399 4.3715C26.2626 4.33505 26.2241 4.29871 26.1856 4.22612C26.2243 4.22622 26.2244 4.18997 26.2631 4.19007ZM25.9928 4.04439C25.9927 4.08064 25.9925 4.11688 25.9924 4.15313C25.876 4.26156 25.6829 4.15233 25.5282 4.11568C25.683 4.11608 25.8379 4.08024 25.9928 4.04439ZM24.1481 34.3406C24.3031 34.2685 24.3807 34.1962 24.497 34.124C24.5355 34.1966 24.5741 34.233 24.5739 34.2692C24.4962 34.3777 24.4187 34.4138 24.1481 34.3406ZM24.9551 2.01197C25.0709 2.08476 25.0708 2.12101 24.9536 2.44692C24.6443 2.37362 24.1795 2.5174 24.0652 2.00967C24.4141 1.7931 24.7237 1.79391 24.9551 2.01197ZM22.72 33.322C22.6429 33.2493 22.6043 33.213 22.5272 33.1403C22.566 33.1042 22.6049 33.0318 22.6048 33.068C22.682 33.1045 22.7592 33.1771 22.8364 33.2136L22.72 33.322ZM22.7129 1.46249C22.6346 1.71601 22.48 1.67936 22.3256 1.57023C22.4418 1.53428 22.558 1.49834 22.7129 1.46249ZM22.5572 1.71581C22.5569 1.82454 22.5567 1.86079 22.5566 1.89703C22.4791 1.93308 22.3629 1.96902 22.2854 2.00506C22.2855 1.96882 22.247 1.93248 22.2471 1.89623C22.3246 1.86019 22.4022 1.7879 22.5572 1.71581ZM20.5856 1.23951C20.5856 1.23951 20.6244 1.20337 20.6243 1.23961L20.6629 1.27595C20.6239 1.34834 20.6237 1.42083 20.5847 1.49323C20.546 1.49313 20.546 1.49313 20.5074 1.49303C20.5464 1.38439 20.5854 1.312 20.5856 1.23951ZM20.276 1.27495C20.3145 1.3113 20.3142 1.42003 20.2755 1.41993C20.1203 1.52827 20.0432 1.45558 19.9275 1.34654C20.0442 1.16562 20.1604 1.12968 20.276 1.27495ZM17.9875 2.93631C18.4529 2.61131 18.8799 2.21372 19.5387 1.88922C19.4995 2.0341 19.4993 2.10659 19.4606 2.10649C19.1115 2.3593 18.7236 2.64826 18.336 2.86473C18.2583 2.93702 18.1036 2.93662 17.9874 2.97256C17.9487 2.97246 17.9488 2.93621 17.9875 2.93631ZM17.9486 3.0087C17.9483 3.0812 17.9481 3.15369 17.9094 3.15359C17.6767 3.29796 17.4442 3.4061 17.2117 3.51423C17.3673 3.26092 17.6001 3.08029 17.9486 3.0087ZM16.8253 3.36825C16.9417 3.25981 17.0582 3.15138 17.1747 3.0067C17.1352 3.26032 17.1352 3.26032 16.8253 3.36825ZM2.84937 28.45C2.69362 28.7395 2.57841 28.4855 2.42365 28.4851C2.54021 28.3404 2.65666 28.232 2.84937 28.45ZM1.92959 25.8742L2.00685 25.9106C2.00672 25.9469 1.96778 26.0193 1.92897 26.0554C1.85171 26.019 1.81314 25.9826 1.77445 25.9825C1.85196 25.9465 1.89077 25.9103 1.92959 25.8742ZM51.8709 5.8874C51.9096 5.8875 51.9483 5.8876 51.9869 5.8877C51.9872 5.81521 51.9488 5.74262 51.949 5.67013C51.9103 5.67003 51.9103 5.67003 51.8716 5.66993C51.8327 5.74232 51.8711 5.81491 51.8709 5.8874ZM63.6861 12.9858C63.6475 12.9494 63.6477 12.9132 63.6091 12.8768C63.5704 12.8767 63.5316 12.9129 63.4929 12.9128C63.5315 12.9491 63.5313 12.9854 63.5313 12.9854C63.6086 13.0218 63.6474 12.9857 63.6861 12.9858ZM56.7821 6.62502C56.7823 6.58878 56.7823 6.58878 56.7821 6.62502C56.6274 6.62462 56.5113 6.62432 56.3565 6.62392C56.5113 6.62432 56.6661 6.62472 56.7821 6.62502Z" fill="#2494E4" fill-opacity="0.1"/>
</svg>
