<svg width="58" height="37" viewBox="0 0 58 37" fill="none" xmlns="http://www.w3.org/2000/svg">
<path id="Vector" d="M6.10383 29.5015C6.10373 29.538 6.10373 29.538 6.10383 29.5015V29.5015ZM0.920632 24.5848C0.749577 24.9866 0.680432 25.3888 0.951018 25.7919C0.882635 25.938 0.814361 26.0476 0.712009 26.1935C0.541279 26.4856 0.574379 26.7784 0.675426 27.0713C0.709186 27.1445 0.844741 27.2546 0.878826 27.2182C1.1849 27.1093 1.59215 27.2568 1.79706 26.8917C1.89887 26.9286 1.9667 26.9654 2.06851 27.0023C1.82951 27.4039 1.387 27.6952 1.55522 28.2443C1.75895 28.2815 1.92871 28.3186 2.09857 28.3191C2.19983 28.5389 2.23326 28.7219 2.1308 28.9044C2.13058 28.9775 2.09629 29.0872 2.13015 29.1238C2.26549 29.3072 2.43481 29.4905 2.60424 29.6373C2.70594 29.7108 2.87548 29.821 2.9775 29.7847C3.79305 29.714 4.64269 29.6068 5.45825 29.5361C5.66219 29.5002 5.86603 29.5008 6.06986 29.5014C6.03665 29.2453 6.20663 29.2092 6.37648 29.2096C6.41046 29.2098 6.4441 29.3195 6.51172 29.4295C6.37573 29.4656 6.23973 29.5018 6.06976 29.5379C6.20575 29.5017 6.37573 29.4656 6.51172 29.4295L7.25912 29.4318C7.08892 29.541 7.02087 29.5773 6.91885 29.6136C6.98668 29.6504 7.05452 29.6872 7.12235 29.724C7.05321 30.126 6.94999 30.5647 7.25476 30.8948C6.98189 31.2598 6.91286 31.6253 7.08152 32.0281C7.59122 31.993 7.93095 31.9941 8.16842 32.1045C8.13423 32.1776 8.10005 32.2506 8.06586 32.3237C8.03156 32.4333 7.96339 32.5062 7.92909 32.6158C7.82642 32.8716 7.89393 33.0181 8.1656 33.0555C8.19957 33.0555 8.23355 33.0557 8.30149 33.0559C8.50532 33.0565 8.57294 33.1664 8.53832 33.3858C8.50401 33.4955 8.46961 33.6416 8.53744 33.6783C8.67279 33.8617 8.842 34.0816 9.04551 34.192C9.21504 34.3022 9.41887 34.3028 9.62284 34.2668C10.3705 34.1593 11.0844 34.0152 11.8322 33.8711C12.2061 33.799 12.5803 33.6539 12.9532 33.9109C12.9535 33.8013 12.9877 33.7282 12.9879 33.6916C13.158 33.619 13.3618 33.583 13.5319 33.5104C14.1442 33.2562 14.7564 33.0019 15.3689 32.7112C16.3213 32.3117 17.2738 31.8755 18.2263 31.4395C18.4984 31.3305 18.8048 31.1486 19.0431 30.9664C19.3155 30.7478 19.6215 30.6755 19.9953 30.64C19.961 30.7497 19.9608 30.8228 19.9267 30.8593C19.7901 31.0784 19.5857 31.2973 19.483 31.5529C19.3802 31.8452 19.3792 32.1744 19.3442 32.5035C19.3094 32.796 19.2406 33.0885 19.2058 33.381C19.1714 33.5271 19.1708 33.71 19.1704 33.8563C19.408 33.9302 19.6117 33.9674 19.8833 34.0413C19.8828 34.2242 19.8821 34.4071 19.8476 34.5899C19.813 34.8092 19.8806 34.9557 20.0502 35.0294C20.2878 35.1032 20.2873 35.2861 20.2526 35.5055C20.2526 35.5055 20.2527 35.4689 20.2867 35.469C20.3547 35.4326 20.4228 35.3963 20.4569 35.3598C20.4567 35.3963 20.4566 35.433 20.4566 35.4695C20.3886 35.4693 20.3206 35.4691 20.2526 35.5055C20.2865 35.5422 20.3543 35.579 20.3541 35.6521C20.488 36.3108 20.9295 36.3854 21.405 36.3868C22.0167 36.352 22.6283 36.3172 23.2399 36.2825C23.7836 36.2475 24.328 35.9565 24.9053 36.0314C25.0072 36.0317 25.1093 35.9588 25.2114 35.9226C25.2115 35.886 25.2115 35.886 25.2116 35.8494L24.9398 35.8486C24.94 35.812 24.94 35.812 24.9401 35.7755C25.2121 35.7031 25.5181 35.5943 25.7901 35.522C25.6538 35.6678 25.4839 35.6674 25.4153 35.8866C25.5174 35.8504 25.5853 35.8506 25.6534 35.8142C26.1635 35.6328 26.6738 35.4149 27.1499 35.2334C27.524 35.0882 27.8983 34.9065 28.2386 34.688C28.8853 34.2875 29.6335 34.0338 30.2464 33.5601C30.4165 33.4508 30.5521 33.561 30.5515 33.7805C30.5511 33.8902 30.5169 33.9998 30.4826 34.1095L30.5165 34.1096C30.585 33.9268 30.6534 33.7807 30.7559 33.5982C30.8236 33.6715 30.8913 33.7449 30.9591 33.8182C31.0953 33.6724 31.2318 33.4899 31.3342 33.3439C31.3678 33.4537 31.4013 33.6001 31.3673 33.6366C31.197 33.7458 31.298 34.0753 31.06 34.1111C31.0595 34.294 31.0929 34.5136 31.0922 34.7331C31.2285 34.6237 31.3307 34.5143 31.467 34.3684C31.4998 34.7708 31.3293 34.9532 31.1931 35.0991C31.2603 35.3188 31.3616 35.5385 31.395 35.7215C31.4277 36.1605 31.4616 36.1972 31.8353 36.1983C31.9371 36.1986 32.0392 36.1623 32.1751 36.1628C32.277 36.1631 32.413 36.1269 32.4807 36.2003C32.7181 36.3473 32.956 36.3114 33.228 36.239C33.3641 36.1663 33.5002 36.0935 33.6362 36.0573C33.8403 35.9848 34.0441 35.9854 34.2134 36.1688C34.2473 36.2055 34.3833 36.1693 34.4851 36.2062C34.4516 36.0598 34.4178 35.9866 34.3841 35.9133C34.8946 35.5856 34.8946 35.5856 35.1993 35.9523C35.2673 35.9159 35.3354 35.8795 35.4034 35.8432C35.2681 35.6599 35.4041 35.6238 35.5401 35.5876C35.744 35.5516 35.9144 35.3692 36.1177 35.5527C36.1516 35.5893 36.2537 35.5165 36.2878 35.48C36.4921 35.3343 36.6963 35.1887 36.9007 35.0429C37.0028 34.9701 37.105 34.8606 37.2748 34.8978C37.3426 34.9346 37.4447 34.8617 37.5127 34.8253C37.9211 34.6071 38.2954 34.3887 38.7037 34.1705C39.0441 33.9887 39.418 33.88 39.7245 33.6249C40.2014 33.224 40.7119 32.8963 41.2225 32.5686C41.5969 32.3503 41.9713 32.0953 42.3458 31.8404C42.3799 31.804 42.4138 31.8041 42.4818 31.8042C42.5498 31.8045 43.0596 31.6962 43.1278 31.6233C43.2981 31.4775 43.6039 31.4784 43.6048 31.1492C43.8424 31.2231 43.8092 30.9669 43.8775 30.8574C44.0815 30.7849 44.3194 30.7856 44.4556 30.6763C44.8301 30.3848 45.1708 30.0566 45.5117 29.6918C45.7501 29.4731 45.9208 29.181 46.1255 28.889C46.262 28.7065 46.3983 28.5606 46.5685 28.4514C46.7047 28.3421 46.8408 28.2693 46.9771 28.16C47.1473 28.0142 47.3177 27.8319 47.488 27.686C47.7604 27.504 47.9988 27.2852 48 26.8829C48.2379 26.847 48.4419 26.811 48.3746 26.5548C48.5791 26.3725 48.7155 26.1901 48.8858 26.0442C48.988 25.9714 49.0901 25.8986 49.1583 25.789C49.2606 25.6796 49.4647 25.5704 49.4651 25.4608C49.4661 25.1316 49.7383 24.9861 49.9088 24.7671C50.3179 24.2929 50.7607 23.8918 51.1358 23.4175C51.7153 22.7608 52.2949 22.0676 52.8745 21.3743C53.3175 20.9002 53.7605 20.4626 54.2036 19.9884C54.6807 19.4778 55.1239 18.9305 55.6012 18.3832C56.2144 17.8364 56.7937 17.2163 57.3392 16.5962C57.2381 16.3033 57.1709 16.047 57.1375 15.864C56.9679 15.7538 56.7982 15.7167 56.7986 15.607C56.799 15.4607 56.9013 15.3147 56.9356 15.205C56.6643 15.0579 56.4268 14.9475 56.1553 14.8369C56.0872 14.8734 55.9512 14.9461 55.8151 15.0188C55.7822 14.653 56.088 14.6538 56.2584 14.4715C56.0548 14.3977 55.8508 14.4337 55.7152 14.3236C55.5796 14.2134 55.4784 13.9936 55.3768 13.8836C55.1048 13.956 54.8668 14.0284 54.6287 14.1008C54.4927 14.137 54.3564 14.283 54.2212 14.0631C54.2213 14.0265 54.0853 14.0627 53.9833 14.099C53.9153 14.0987 53.8473 14.1351 53.7793 14.1349C53.7461 13.8788 54.1199 13.8433 54.0189 13.5504C53.9167 13.6233 53.8145 13.7327 53.7122 13.8421C53.6785 13.7689 53.6448 13.6956 53.6788 13.6591C53.7818 13.3303 53.8507 13.0013 53.9875 12.6725C54.0216 12.636 54.1237 12.5997 54.1577 12.5633C54.1242 12.4168 54.1246 12.2706 54.0909 12.1607C54.0914 12.0144 54.0236 11.9776 53.8876 12.0138C53.8196 12.0136 53.7515 12.05 53.7515 12.05C53.6165 11.757 53.4813 11.5371 53.38 11.354C53.4826 11.0982 53.5512 10.8789 53.6198 10.6597C53.3487 10.4395 53.1115 10.2193 52.8744 9.99913C52.8064 9.99896 52.7044 10.0352 52.6024 10.0715C52.6026 9.99834 52.6028 9.92511 52.6031 9.85197C52.7406 9.30377 52.6399 8.90113 52.131 8.64358C52.0631 8.6068 51.9278 8.4601 51.9618 8.42362C52.0645 8.16789 51.8609 8.09412 51.7593 7.94753C51.4212 7.43445 50.8101 7.28632 50.3335 7.6141C50.2314 7.68694 50.0954 7.68654 49.9936 7.68624C49.8913 7.79566 49.7888 7.97824 49.6526 8.08757C49.5165 8.19688 49.3126 8.19628 49.2451 8.04977C49.1778 7.83011 49.0081 7.79303 48.8724 7.71947C49.0773 7.35432 49.4503 7.61146 49.6206 7.42909C49.5872 7.24611 49.5537 7.09971 49.5201 6.98987C49.4179 7.06273 49.3497 7.13567 49.2477 7.17195C48.465 7.60854 47.7501 8.11847 47.1028 8.73835C45.808 10.0147 44.5471 11.3277 43.2862 12.6407C43.218 12.7136 43.15 12.75 43.0819 12.8229C43.048 12.7862 43.048 12.7862 43.0141 12.7496C43.0824 12.64 43.1508 12.4939 43.219 12.3844C43.7652 11.5082 44.3452 10.6687 44.8574 9.79235C45.1989 9.20818 45.5064 8.62387 45.814 8.00298C45.9506 7.74736 46.0534 7.45505 46.0204 7.12577C45.8848 7.05221 45.7832 6.94218 45.6136 6.83195C45.7496 6.79577 45.8177 6.7594 45.9538 6.68666C45.6485 6.53944 45.4788 6.46578 45.2753 6.35545L45.2766 5.91654C45.1747 5.91623 45.0728 5.91593 44.9709 5.91562C45.0736 5.62332 45.0736 5.62332 45.6174 5.55179C45.38 5.44136 45.2443 5.3678 45.0747 5.29414C45.2454 5.00204 45.042 4.85513 44.8045 4.74469C44.6349 4.63445 44.4654 4.52422 44.3298 4.41409C44.1937 4.48684 44.0576 4.55958 43.8876 4.63223C43.8885 4.30305 43.8893 4.04701 43.8901 3.79098C43.8911 3.4618 43.7219 3.24184 43.4847 3.02167C43.3831 2.91164 43.2133 2.87456 43.0437 2.8009C43.078 2.69128 43.1123 2.58165 43.1466 2.47202C43.0447 2.47172 42.9428 2.47142 42.8407 2.50769C42.6387 1.88529 42.6049 1.84862 42.0272 1.88347C41.9932 1.88337 41.9253 1.88317 41.9255 1.8466C41.8241 1.66341 41.7219 1.73626 41.5858 1.80901C41.3475 1.95461 41.1433 2.1003 40.905 2.28247C40.8373 2.17255 40.7356 2.09909 40.668 1.98916C40.5325 1.84245 40.4311 1.69584 40.2956 1.54914C40.0914 1.69483 39.8873 1.76738 39.717 1.91318C38.0144 3.26143 36.481 4.79307 34.9477 6.32473C34.2661 7.05422 33.5505 7.78362 32.8689 8.47654C32.8008 8.54949 32.6988 8.58576 32.5626 8.69509C32.5292 8.47553 32.4957 8.32913 32.4961 8.18282C32.5309 7.92689 32.4294 7.78028 32.2257 7.70652C32.124 7.66964 32.0565 7.52314 31.9886 7.48637C31.9539 7.74229 31.9539 7.74229 31.6143 7.7047C31.6836 7.26599 31.7188 6.82718 31.7881 6.3519C31.7202 6.3517 31.6523 6.3515 31.5842 6.38787C31.5162 6.42424 31.448 6.49719 31.4142 6.46052C31.0748 6.3132 30.8362 6.56852 30.5641 6.67745C30.428 6.75019 30.3258 6.85961 30.1899 6.85921C30.2247 6.60328 30.2933 6.34745 30.2601 6.12789C30.2274 5.68888 30.2628 5.21349 30.1622 4.77428L30.1622 4.7377C30.1967 4.5915 30.265 4.48197 30.2994 4.33577C29.926 4.18835 29.6199 4.33375 29.3818 4.40619C29.2124 4.29596 29.0428 4.18573 28.8733 4.07549C29.0094 4.00274 29.1114 3.96647 29.1794 3.9301C29.0441 3.74682 28.9087 3.56353 28.7733 3.41682C28.7056 3.34347 28.5699 3.26991 28.468 3.26961C28.3321 3.2692 28.1621 3.34185 28.026 3.4146C27.5836 3.63274 27.1412 3.88746 26.6988 4.14218C26.6319 3.81279 26.9046 3.48441 26.5657 3.22737C26.7018 3.15463 26.8379 3.08187 26.94 3.00903C26.9401 2.97245 26.9063 2.93577 26.9063 2.93577C26.5659 3.11764 26.226 3.22636 25.9195 3.44491C25.2728 3.84533 24.6261 4.28231 24.0134 4.68284C23.8091 4.82853 23.6055 4.75477 23.5037 4.68132C23.0972 4.31434 22.6556 4.27645 22.1122 4.23826C22.2156 3.7265 22.0472 3.25051 22.1846 2.73884C22.3217 2.33692 22.1864 2.15363 21.7788 2.11584C21.6769 2.11553 21.5411 2.07856 21.4391 2.11483C21.3032 2.11443 21.2014 2.07755 21.0998 1.96751C20.8967 1.71088 20.6936 1.45424 20.4904 1.23417C20.4228 1.16082 20.3209 1.12394 20.219 1.12364C20.0151 1.15961 19.8112 1.159 19.607 1.26812C19.3689 1.37714 19.1306 1.55932 18.8582 1.74139C18.9268 1.52213 18.9612 1.37593 18.9957 1.19315C18.6554 1.4116 18.62 1.88699 18.2795 2.14201C18.3141 1.92265 18.3826 1.73998 18.3833 1.52051C18.3838 1.33764 18.3164 1.15455 18.2491 0.934896C18.4531 0.898926 18.657 0.862957 18.827 0.826889C18.5896 0.716452 18.5896 0.716452 18.3853 0.825575C18.0111 1.00734 17.637 1.15253 17.3304 1.40766C16.5133 2.02702 15.6959 2.71954 14.8786 3.37548C14.7424 3.48481 14.606 3.6307 14.4017 3.81298C14.5716 3.77691 14.6396 3.77711 14.7075 3.77731C14.8092 3.85077 14.9111 3.88765 15.0467 3.9612C14.9784 4.07073 14.91 4.21683 14.8078 4.32626C14.5692 4.58158 14.1951 4.72677 14.126 5.12891C14.1258 5.16548 14.0918 5.16538 14.058 5.16528C13.411 5.63885 12.7979 6.18567 12.2863 6.84252C12.15 7.025 12.1156 7.13462 12.1491 7.31761C12.8287 7.24647 12.9305 7.28335 13.0997 7.50331C12.9296 7.61253 12.6576 7.68488 12.5551 7.86746C12.4526 8.05003 12.3843 8.15956 12.1802 8.26868C12.0441 8.34143 12.0096 8.52421 12.1111 8.67082C12.1786 8.81732 12.3147 8.74457 12.4168 8.67172C12.5529 8.59898 12.6552 8.48955 12.7911 8.45338C12.8253 8.4169 12.9269 8.49036 12.9609 8.49046C12.9267 8.56351 12.9265 8.63666 12.8924 8.67314C12.8242 8.74609 12.7222 8.78237 12.654 8.85531C12.5859 8.92826 12.4498 9.00101 12.4495 9.07416C12.4828 9.33029 12.3128 9.36636 12.1767 9.43911C12.0745 9.51199 11.9724 9.58478 11.8703 9.65766C11.9377 9.84073 11.9713 9.98719 12.0048 10.1336C11.9707 10.17 11.9365 10.2431 11.9364 10.2797C10.1298 12.286 8.35742 14.2558 6.5509 16.2622C5.76703 17.1011 4.98316 17.94 4.23316 18.8156C3.89234 19.1804 3.5854 19.5818 3.41401 20.0934C3.34552 20.276 3.24295 20.4951 3.10662 20.6411C2.59529 21.2247 2.05 21.8084 1.53867 22.3921C1.23183 22.7569 0.925094 23.0852 0.719843 23.5601C0.65125 23.7793 0.616735 23.9621 0.78605 24.1455C1.09202 24.0732 1.0574 24.2926 0.920632 24.5848ZM19.4439 33.2719C19.5112 33.4916 19.5786 33.6747 19.6121 33.8576C19.2722 33.8932 19.2384 33.8565 19.4439 33.2719ZM55.205 14.5415C55.2051 14.5049 55.3071 14.4687 55.3412 14.4322C55.375 14.5055 55.4427 14.5788 55.4426 14.6154C55.4083 14.725 55.34 14.8345 55.2718 14.9075C55.2378 14.9073 55.204 14.8707 55.204 14.8707C55.2043 14.761 55.1707 14.6511 55.205 14.5415ZM53.3489 10.3663C53.2123 10.5853 53.4835 10.8056 53.2113 10.9511C53.11 10.7313 53.0086 10.5482 52.8734 10.3283C53.0432 10.3288 53.1451 10.3657 53.3489 10.3663ZM52.4017 9.01015C52.4013 9.15645 52.4348 9.30286 52.4345 9.41259C52.4005 9.41248 52.3664 9.44895 52.3664 9.44895C52.2987 9.3756 52.197 9.30215 52.0614 9.19202C52.1975 9.11927 52.2656 9.0829 52.4017 9.01015ZM52.06 9.66749C52.1954 9.85083 52.2288 10.0337 52.0586 10.143C52.0246 10.1429 51.9908 10.1063 51.9568 10.1061C51.9573 9.92327 52.0256 9.81369 52.06 9.66749ZM50.7747 7.76171C51.013 7.61612 51.3186 7.6536 51.5559 7.83719C51.3859 7.87326 51.2159 7.90933 51.0458 7.98198C50.8758 8.05462 50.7057 8.12727 50.5695 8.2366C50.5356 8.19992 50.5017 8.16324 50.4679 8.12656C50.5701 8.01714 50.6386 7.83446 50.7747 7.76171ZM47.8507 8.55769C47.9528 8.48484 48.0549 8.412 48.0892 8.33894C48.2602 7.93711 48.6337 8.01138 49.0078 7.86618C48.8029 8.23134 48.8015 8.70683 48.2585 8.52233C48.1906 8.48555 48.1224 8.59508 48.0543 8.63145C47.6798 8.92295 47.3051 9.25102 46.9645 9.54263C46.9306 9.50593 46.9306 9.50593 46.8967 9.46926C47.2375 9.14108 47.5441 8.84939 47.8507 8.55769ZM44.4234 30.0544C44.4232 30.1275 44.423 30.2007 44.4229 30.2373C44.3884 30.42 44.3206 30.3467 44.151 30.273C44.2533 30.1636 44.3213 30.1273 44.4234 30.0544ZM45.6807 7.12476C45.8837 7.41797 45.8489 7.6739 45.4398 8.18476C45.5427 7.85588 45.6117 7.49032 45.6807 7.12476ZM44.6004 4.81724C44.6684 4.81744 44.702 4.92727 44.7699 4.96405C44.7019 5.00042 44.6335 5.10994 44.5996 5.10985C44.4978 5.07296 44.43 4.99961 44.2604 4.92596C44.4305 4.85331 44.4985 4.81693 44.6004 4.81724ZM43.4496 3.38734C43.6535 3.38794 43.619 3.57072 43.5844 3.7535L43.2787 3.75259C43.1774 3.53283 43.2458 3.38673 43.4496 3.38734ZM43.2433 4.22798L43.2772 4.22808C43.2431 4.30113 43.2427 4.41085 43.2086 4.4839C43.1746 4.48381 43.1746 4.48381 43.1407 4.44713C43.1748 4.41065 43.2091 4.30102 43.2433 4.22798ZM42.0947 2.06656C42.0941 2.24944 42.1277 2.39584 42.0934 2.4689C41.9569 2.68794 41.7528 2.79707 41.4131 2.75948C41.6517 2.50416 41.8561 2.32188 42.0947 2.06656ZM39.9885 2.02372C40.2265 1.95127 40.4303 1.95187 40.6683 1.91601C40.6678 2.06231 40.7014 2.20871 40.7008 2.39159C40.6668 2.3915 40.6327 2.42797 40.6327 2.42797C40.599 2.35471 40.5651 2.31804 40.4975 2.20811C40.4632 2.31773 40.429 2.39079 40.3948 2.46384C40.1572 2.42656 39.9196 2.3527 39.6819 2.31541C39.7164 2.13263 39.8525 2.05988 39.9885 2.02372ZM39.8171 2.53528C39.7827 2.68148 39.8162 2.82788 39.7482 2.86426C39.6459 2.97368 39.5437 3.08311 39.4077 3.11928C38.9314 3.33731 38.5567 3.70197 38.1818 4.06661C38.0116 4.21241 37.8413 4.32163 37.6711 4.46743C37.6372 4.43076 37.6372 4.39418 37.6034 4.3575C38.3187 3.73783 38.9323 3.04471 39.8171 2.53528ZM36.4447 5.59765C36.6496 5.23249 36.956 5.01395 37.2964 4.79551C37.0915 5.16066 36.7848 5.45236 36.4444 5.6708C36.4444 5.6708 36.4106 5.63412 36.4447 5.59765ZM36.4104 5.70728C36.3421 5.8168 36.2739 5.88975 36.1375 6.07222C36.2403 5.77992 36.2403 5.77992 36.4104 5.70728ZM32.3124 35.6877C32.142 35.87 32.142 35.87 31.8362 35.9057C31.8362 35.8692 31.8024 35.8325 31.8024 35.7959C31.9724 35.7599 32.1084 35.7237 32.3124 35.6877ZM32.1912 7.92588C32.2586 8.10896 32.1902 8.25506 32.0542 8.29124C31.8842 8.32731 31.7145 8.29023 31.6473 8.03399C31.8512 7.99802 32.0212 7.96194 32.1912 7.92588ZM29.5174 4.51633C29.6537 4.407 29.8238 4.33436 29.9596 4.33476C30.1295 4.33527 30.129 4.51815 30.1625 4.66455C29.9921 4.84692 29.7881 4.88289 29.5845 4.80913C29.4828 4.73569 29.4154 4.55259 29.5174 4.51633ZM28.2054 34.4319C28.1714 34.4683 28.1374 34.4682 28.1034 34.4682C28.0694 34.4681 28.0355 34.4314 27.9678 34.358C28.0699 34.3217 28.1038 34.3218 28.1378 34.322C28.1716 34.3586 28.2054 34.4319 28.2054 34.4319ZM28.0574 4.25595C28.0572 4.3291 28.091 4.36577 28.0909 4.40235C28.0228 4.4753 27.9208 4.51157 27.8525 4.58453C27.8187 4.54784 27.8188 4.51127 27.7849 4.4746C27.8532 4.40164 27.9553 4.3288 28.0574 4.25595ZM27.1174 34.7212C27.1515 34.6848 27.2194 34.7216 27.3214 34.6853C27.2531 34.7948 27.219 34.8312 27.185 34.8678C27.1509 34.9042 27.083 34.8674 26.9811 34.8671C27.0493 34.7942 27.0834 34.7577 27.1174 34.7212ZM25.8829 4.32263C25.8831 4.28605 25.8832 4.24948 25.8833 4.2129C25.9512 4.2131 26.0192 4.21331 26.0871 4.21351C26.0871 4.21351 26.087 4.25008 26.0869 4.28666L25.8829 4.32263ZM26.4629 3.51968C26.4968 3.51978 26.5308 3.51988 26.5647 3.55655C26.5302 3.73934 26.4956 3.92211 26.4608 4.21462C26.2579 3.88483 26.4283 3.73903 26.4629 3.51968ZM26.157 3.55534C26.3607 3.59253 26.3262 3.7753 26.2238 3.9213C26.088 3.9209 25.9521 3.9205 25.7824 3.88342C25.8509 3.66416 25.9532 3.51816 26.157 3.55534ZM25.611 4.39498C25.5767 4.46802 25.5765 4.57775 25.5085 4.57755C24.998 4.86864 24.5214 5.19641 24.011 5.48751C24.4202 4.97665 25.3391 4.39417 25.611 4.39498ZM23.0969 4.42407C23.1987 4.46095 23.2664 4.5343 23.3683 4.57118C23.3681 4.60776 23.368 4.64433 23.334 4.64424C23.2661 4.64403 23.2321 4.64393 23.1643 4.60716C23.0964 4.57037 23.0626 4.5337 23.0288 4.46044C23.0628 4.46055 23.0629 4.42397 23.0969 4.42407ZM22.8595 4.27705C22.8594 4.31363 22.8593 4.35021 22.8592 4.38678C22.757 4.49621 22.5874 4.38598 22.4516 4.349C22.5875 4.3494 22.7235 4.31323 22.8595 4.27705ZM21.2398 34.85C21.3759 34.7773 21.444 34.7043 21.5461 34.6315C21.5799 34.7048 21.6138 34.7414 21.6137 34.778C21.5454 34.8875 21.4774 34.924 21.2398 34.85ZM21.9484 2.22607C22.05 2.29953 22.05 2.33611 21.947 2.66499C21.6755 2.59102 21.2673 2.73611 21.167 2.22375C21.4733 2.0052 21.7452 2.00601 21.9484 2.22607ZM19.9858 33.8222C19.9181 33.7489 19.8842 33.7122 19.8165 33.6388C19.8506 33.6023 19.8848 33.5293 19.8847 33.5659C19.9525 33.6027 20.0203 33.676 20.088 33.7128L19.9858 33.8222ZM19.9796 1.67157C19.9109 1.9274 19.7751 1.89042 19.6395 1.78029C19.7416 1.74401 19.8436 1.70774 19.9796 1.67157ZM19.8429 1.9272C19.8426 2.03693 19.8425 2.0735 19.8424 2.11008C19.7743 2.14645 19.6723 2.18272 19.6042 2.2191C19.6043 2.18252 19.5705 2.14584 19.5706 2.10927C19.6387 2.0729 19.7068 1.99995 19.8429 1.9272ZM18.1117 1.44656C18.1117 1.44656 18.1458 1.41008 18.1457 1.44666L18.1796 1.48333C18.1454 1.55638 18.1452 1.62953 18.1109 1.70259C18.077 1.70248 18.077 1.70248 18.0431 1.70239C18.0773 1.59275 18.1116 1.51971 18.1117 1.44656ZM17.8399 1.48232C17.8737 1.519 17.8734 1.62873 17.8394 1.62862C17.7032 1.73795 17.6355 1.66459 17.5339 1.55457C17.6364 1.37199 17.7384 1.33572 17.8399 1.48232ZM15.8305 3.15886C16.2391 2.83088 16.614 2.42967 17.1925 2.1022C17.1581 2.2484 17.1579 2.32155 17.1239 2.32145C16.8174 2.57657 16.4768 2.86817 16.1365 3.08661C16.0682 3.15956 15.9324 3.15916 15.8304 3.19543C15.7964 3.19533 15.7965 3.15875 15.8305 3.15886ZM15.7963 3.2319C15.7961 3.30506 15.7959 3.37821 15.7619 3.37811C15.5576 3.52381 15.3534 3.63293 15.1493 3.74205C15.2859 3.48642 15.4903 3.30415 15.7963 3.2319ZM14.81 3.59474C14.9122 3.48532 15.0145 3.37589 15.1168 3.22988C15.0821 3.48582 15.0821 3.48582 14.81 3.59474ZM2.53847 28.9056C2.40172 29.1978 2.30056 28.9415 2.16466 28.9411C2.26701 28.7951 2.36926 28.6857 2.53847 28.9056ZM1.73086 26.3063L1.7987 26.343C1.79858 26.3797 1.76439 26.4527 1.73032 26.4891C1.66248 26.4524 1.62862 26.4157 1.59464 26.4157C1.6627 26.3792 1.69677 26.3428 1.73086 26.3063ZM45.5817 6.1369C45.6157 6.13701 45.6497 6.1371 45.6836 6.13721C45.6839 6.06406 45.6501 5.9908 45.6503 5.91764C45.6163 5.91755 45.6163 5.91755 45.5824 5.91744C45.5482 5.9905 45.5819 6.06375 45.5817 6.1369ZM55.9561 13.3002C55.9222 13.2635 55.9224 13.2269 55.8885 13.1902C55.8545 13.1901 55.8204 13.2266 55.7864 13.2265C55.8203 13.2632 55.8201 13.2997 55.8201 13.2997C55.888 13.3365 55.9221 13.3001 55.9561 13.3002ZM49.894 6.88126C49.8942 6.84468 49.8942 6.84468 49.894 6.88126C49.7582 6.88085 49.6562 6.88055 49.5203 6.88014C49.6562 6.88055 49.7922 6.88096 49.894 6.88126Z" fill="#219653" fill-opacity="0.1"/>
</svg>
