<svg width="65" height="36" viewBox="0 0 65 36" fill="none" xmlns="http://www.w3.org/2000/svg">
<path id="Vector" d="M6.62354 28.5927C6.62342 28.629 6.62342 28.629 6.62354 28.5927V28.5927ZM0.720452 23.7206C0.525638 24.1188 0.446898 24.5173 0.755058 24.9167C0.677177 25.0615 0.599421 25.1701 0.482852 25.3147C0.28841 25.6042 0.326115 25.8943 0.441189 26.1845C0.479637 26.2571 0.63402 26.3662 0.67284 26.3301C1.02143 26.2223 1.48522 26.3684 1.71861 26.0066C1.83456 26.0431 1.91181 26.0796 2.02776 26.1161C1.75556 26.5141 1.25159 26.8028 1.44318 27.347C1.6752 27.3838 1.86854 27.4206 2.06199 27.4211C2.17732 27.6388 2.21539 27.8201 2.0987 28.0011C2.09845 28.0736 2.05939 28.1822 2.09796 28.2185C2.2521 28.4002 2.44493 28.5819 2.63789 28.7274C2.75372 28.8002 2.9468 28.9094 3.063 28.8735C3.99183 28.8034 4.95947 28.6971 5.88829 28.627C6.12056 28.5914 6.35271 28.592 6.58485 28.5926C6.54703 28.3388 6.74061 28.303 6.93407 28.3035C6.97275 28.3036 7.01107 28.4125 7.08808 28.5214C6.93319 28.5573 6.7783 28.5931 6.58473 28.6289C6.73962 28.593 6.93319 28.5573 7.08808 28.5214L7.93928 28.5236C7.74545 28.6319 7.66795 28.6679 7.55175 28.7038C7.62901 28.7403 7.70627 28.7767 7.78352 28.8132C7.70478 29.2117 7.58722 29.6463 7.93432 29.9734C7.62355 30.3351 7.54493 30.6973 7.73702 31.0965C8.31751 31.0618 8.70442 31.0628 8.97488 31.1722C8.93594 31.2446 8.89701 31.317 8.85807 31.3894C8.81901 31.498 8.74138 31.5703 8.70231 31.6789C8.58537 31.9323 8.66226 32.0775 8.97166 32.1146C9.01035 32.1147 9.04904 32.1148 9.12643 32.115C9.35857 32.1156 9.43558 32.2245 9.39615 32.4419C9.35708 32.5505 9.3179 32.6954 9.39516 32.7318C9.5493 32.9135 9.74201 33.1314 9.97378 33.2408C10.1669 33.35 10.399 33.3506 10.6313 33.315C11.4828 33.2084 12.2958 33.0656 13.1475 32.9228C13.5734 32.8514 13.9995 32.7075 14.4242 32.9623C14.4246 32.8536 14.4635 32.7812 14.4637 32.745C14.6574 32.673 14.8896 32.6373 15.0833 32.5653C15.7806 32.3134 16.4779 32.0615 17.1754 31.7734C18.2601 31.3775 19.3449 30.9453 20.4297 30.5132C20.7396 30.4053 21.0885 30.2249 21.3599 30.0444C21.6702 29.8278 22.0187 29.7562 22.4444 29.721C22.4053 29.8297 22.4051 29.9021 22.3663 29.9383C22.2107 30.1554 21.9779 30.3722 21.8609 30.6256C21.7439 30.9153 21.7427 31.2415 21.7029 31.5676C21.6632 31.8575 21.5849 32.1472 21.5452 32.4371C21.506 32.582 21.5054 32.7632 21.5049 32.9082C21.7755 32.9814 22.0075 33.0182 22.3168 33.0915C22.3162 33.2727 22.3155 33.4539 22.2762 33.6351C22.2368 33.8524 22.3137 33.9976 22.5069 34.0706C22.7775 34.1438 22.7769 34.325 22.7374 34.5424C22.7374 34.5424 22.7375 34.5061 22.7762 34.5062C22.8537 34.4702 22.9312 34.4342 22.9701 34.398C22.9699 34.4343 22.9698 34.4705 22.9697 34.5068C22.8923 34.5066 22.8149 34.5063 22.7374 34.5424C22.776 34.5787 22.8532 34.6152 22.853 34.6877C23.0055 35.3405 23.5083 35.4143 24.0499 35.4157C24.7465 35.3812 25.4431 35.3468 26.1396 35.3124C26.7588 35.2777 27.3788 34.9894 28.0363 35.0635C28.1524 35.0638 28.2687 34.9917 28.3849 34.9557C28.385 34.9195 28.385 34.9195 28.3852 34.8832L28.0756 34.8824C28.0758 34.8462 28.0758 34.8462 28.0759 34.8099C28.3857 34.7382 28.7342 34.6304 29.044 34.5587C28.8888 34.7033 28.6953 34.7028 28.6172 34.9201C28.7334 34.8841 28.8108 34.8843 28.8883 34.8483C29.4693 34.6686 30.0504 34.4526 30.5926 34.2728C31.0187 34.1289 31.445 33.9488 31.8326 33.7323C32.5691 33.3355 33.4212 33.084 34.1192 32.6146C34.313 32.5064 34.4674 32.6155 34.4667 32.833C34.4663 32.9417 34.4273 33.0504 34.3882 33.159L34.4269 33.1591C34.5049 32.9781 34.5828 32.8333 34.6995 32.6524C34.7766 32.7251 34.8537 32.7977 34.9309 32.8704C35.0861 32.7259 35.2415 32.545 35.3581 32.4004C35.3964 32.5092 35.4346 32.6543 35.3958 32.6904C35.2019 32.7986 35.3169 33.1252 35.0459 33.1607C35.0453 33.3419 35.0833 33.5595 35.0825 33.777C35.2377 33.6686 35.3541 33.5602 35.5094 33.4156C35.5467 33.8144 35.3526 33.9951 35.1974 34.1397C35.274 34.3574 35.3893 34.5751 35.4274 34.7565C35.4646 35.1915 35.5032 35.2279 35.9288 35.229C36.0448 35.2293 36.161 35.1933 36.3158 35.1937C36.4319 35.194 36.5868 35.1582 36.6639 35.2309C36.9342 35.3765 37.2052 35.341 37.515 35.2693C37.67 35.1972 37.825 35.1251 37.9799 35.0893C38.2123 35.0174 38.4444 35.018 38.6372 35.1997C38.6758 35.2361 38.8307 35.2002 38.9466 35.2368C38.9085 35.0917 38.87 35.0191 38.8316 34.9465C39.413 34.6218 39.413 34.6218 39.76 34.9852C39.8375 34.9491 39.915 34.9131 39.9925 34.877C39.8384 34.6954 39.9933 34.6596 40.1482 34.6237C40.3804 34.5881 40.5745 34.4073 40.806 34.5892C40.8446 34.6255 40.9609 34.5533 40.9997 34.5172C41.2324 34.3728 41.465 34.2284 41.6977 34.084C41.814 34.0119 41.9304 33.9034 42.1238 33.9402C42.201 33.9766 42.3173 33.9044 42.3948 33.8684C42.8599 33.6521 43.2862 33.4357 43.7512 33.2195C44.1388 33.0393 44.5647 32.9316 44.9138 32.6788C45.4569 32.2815 46.0383 31.9568 46.6198 31.6321C47.0462 31.4157 47.4726 31.1631 47.8991 30.9105C47.9379 30.8744 47.9766 30.8745 48.054 30.8747C48.1314 30.8749 48.7121 30.7676 48.7897 30.6954C48.9837 30.5509 49.3319 30.5518 49.333 30.2256C49.6036 30.2988 49.5658 30.0449 49.6435 29.9364C49.8759 29.8645 50.1468 29.8652 50.3019 29.7569C50.7285 29.468 51.1165 29.1428 51.5047 28.7814C51.7762 28.5646 51.9707 28.2752 52.2038 27.9858C52.3592 27.805 52.5145 27.6604 52.7083 27.5522C52.8634 27.4438 53.0184 27.3717 53.1736 27.2634C53.3675 27.1189 53.5616 26.9382 53.7555 26.7937C54.0657 26.6133 54.3373 26.3965 54.3386 25.9978C54.6096 25.9623 54.8419 25.9267 54.7653 25.6727C54.9981 25.4921 55.1535 25.3113 55.3474 25.1668C55.4638 25.0946 55.5801 25.0224 55.6578 24.9139C55.7743 24.8055 56.0068 24.6973 56.0072 24.5886C56.0083 24.2624 56.3183 24.1182 56.5125 23.9012C56.9784 23.4313 57.4828 23.0339 57.91 22.5638C58.5699 21.9131 59.23 21.2261 59.8901 20.5392C60.3947 20.0693 60.8992 19.6357 61.4038 19.1658C61.9472 18.6598 62.452 18.1174 62.9956 17.5751C63.6939 17.0332 64.3537 16.4188 64.9749 15.8042C64.8598 15.514 64.7833 15.26 64.7452 15.0787C64.5521 14.9695 64.3588 14.9327 64.3592 14.824C64.3597 14.679 64.4762 14.5343 64.5153 14.4257C64.2063 14.2799 63.9358 14.1705 63.6266 14.061C63.5491 14.097 63.3941 14.1691 63.2391 14.2412C63.2017 13.8786 63.5499 13.8795 63.744 13.6988C63.5121 13.6257 63.2798 13.6614 63.1254 13.5522C62.971 13.4431 62.8557 13.2253 62.74 13.1163C62.4302 13.188 62.1591 13.2598 61.888 13.3316C61.7331 13.3674 61.5779 13.512 61.4239 13.2941C61.424 13.2579 61.2691 13.2937 61.1529 13.3296C61.0755 13.3294 60.998 13.3655 60.9206 13.3653C60.8828 13.1115 61.3085 13.0763 61.1935 12.7861C61.0771 12.8583 60.9607 12.9667 60.8442 13.0751C60.8058 13.0025 60.7674 12.93 60.8062 12.8938C60.9234 12.5679 61.0019 12.2419 61.1577 11.9161C61.1966 11.88 61.3128 11.844 61.3516 11.8079C61.3134 11.6628 61.3139 11.5178 61.2755 11.409C61.276 11.264 61.1988 11.2275 61.0439 11.2634C60.9665 11.2632 60.889 11.2992 60.889 11.2992C60.7352 11.0089 60.5812 10.791 60.4658 10.6095C60.5827 10.3561 60.6608 10.1388 60.739 9.92151C60.4302 9.70324 60.1601 9.48506 59.89 9.26689C59.8126 9.26669 59.6964 9.30264 59.5802 9.33858C59.5805 9.26609 59.5807 9.1936 59.581 9.12111C59.7376 8.57784 59.6229 8.17885 59.0434 7.92363C58.9661 7.88718 58.8119 7.7418 58.8507 7.70566C58.9676 7.45224 58.7357 7.37915 58.6201 7.23387C58.235 6.72544 57.539 6.57866 56.9962 6.90346C56.8799 6.97565 56.7251 6.97525 56.6091 6.97495C56.4926 7.08339 56.3759 7.26431 56.2208 7.37264C56.0657 7.48098 55.8335 7.48038 55.7566 7.3352C55.68 7.11753 55.4867 7.08078 55.3322 7.00789C55.5655 6.64604 55.9903 6.90086 56.1843 6.72013C56.1463 6.53881 56.1081 6.39373 56.0698 6.2849C55.9534 6.35709 55.8758 6.42938 55.7596 6.46532C54.8682 6.89795 54.054 7.40328 53.3168 8.01754C51.8422 9.2823 50.4062 10.5834 48.9701 11.8845C48.8925 11.9568 48.815 11.9929 48.7374 12.0652C48.6988 12.0288 48.6988 12.0288 48.6602 11.9925C48.738 11.8839 48.8159 11.7392 48.8936 11.6306C49.5156 10.7624 50.1762 9.9304 50.7596 9.06203C51.1485 8.48311 51.4987 7.9041 51.849 7.28883C52.0046 7.03552 52.1217 6.74586 52.0841 6.41956C51.9296 6.34667 51.8139 6.23763 51.6208 6.1284C51.7757 6.09255 51.8532 6.05651 52.0082 5.98442C51.6605 5.83854 51.4673 5.76555 51.2355 5.65621L51.237 5.22127C51.1209 5.22097 51.0049 5.22067 50.8888 5.22037C51.0058 4.93071 51.0058 4.93071 51.6251 4.85982C51.3547 4.75039 51.2002 4.6775 51.007 4.60451C51.2014 4.31505 50.9698 4.16947 50.6993 4.06004C50.5062 3.9508 50.3131 3.84156 50.1587 3.73243C50.0037 3.80452 49.8487 3.87661 49.655 3.94859C49.6561 3.62239 49.657 3.36867 49.6579 3.11496C49.659 2.78876 49.4663 2.57079 49.1962 2.35262C49.0805 2.24358 48.8871 2.20684 48.6939 2.13385C48.733 2.02521 48.7721 1.91658 48.8111 1.80794C48.6951 1.80764 48.579 1.80734 48.4628 1.84328C48.2328 1.22652 48.1942 1.19017 47.5363 1.22472C47.4976 1.22462 47.4202 1.22442 47.4204 1.18817C47.3049 1.00665 47.1886 1.07884 47.0336 1.15093C46.7623 1.29521 46.5296 1.43958 46.2582 1.6201C46.1811 1.51117 46.0653 1.43838 45.9883 1.32945C45.834 1.18406 45.7185 1.03879 45.5642 0.893405C45.3316 1.03778 45.0992 1.10967 44.9052 1.25415C42.9661 2.5902 41.2198 4.10798 39.4735 5.62576C38.6972 6.34866 37.8822 7.07145 37.106 7.7581C37.0284 7.83039 36.9122 7.86634 36.7571 7.97467C36.7191 7.7571 36.6809 7.61202 36.6814 7.46704C36.721 7.21343 36.6054 7.06815 36.3735 6.99506C36.2576 6.95851 36.1807 6.81333 36.1034 6.77689C36.0639 7.0305 36.0639 7.0305 35.6771 6.99325C35.756 6.55852 35.7961 6.12368 35.8751 5.65269C35.7977 5.65249 35.7204 5.65229 35.6429 5.68834C35.5654 5.72438 35.4877 5.79667 35.4492 5.76032C35.0627 5.61434 34.791 5.86736 34.4811 5.97529C34.3261 6.04738 34.2097 6.15581 34.0549 6.15541C34.0945 5.9018 34.1727 5.64828 34.1348 5.43072C34.0976 4.99568 34.1379 4.52459 34.0233 4.08935L34.0234 4.05311C34.0626 3.90823 34.1404 3.7997 34.1796 3.65482C33.7544 3.50873 33.4057 3.65281 33.1346 3.7246C32.9416 3.61536 32.7485 3.50613 32.5554 3.39689C32.7104 3.3248 32.8266 3.28886 32.9041 3.25281C32.75 3.07119 32.5958 2.88957 32.4416 2.74419C32.3644 2.6715 32.2099 2.59861 32.0938 2.59831C31.9391 2.5979 31.7454 2.66989 31.5904 2.74198C31.0866 2.95815 30.5828 3.21056 30.0789 3.46297C30.0027 3.13657 30.3133 2.81117 29.9273 2.55645C30.0823 2.48436 30.2373 2.41227 30.3536 2.34008C30.3537 2.30384 30.3152 2.26749 30.3152 2.26749C29.9276 2.44772 29.5404 2.55545 29.1914 2.77202C28.4549 3.16881 27.7183 3.60184 27.0205 3.99874C26.7879 4.14311 26.556 4.07002 26.4401 3.99723C25.9771 3.63358 25.4742 3.59603 24.8553 3.55819C24.9731 3.05106 24.7813 2.57937 24.9378 2.07235C25.0939 1.67405 24.9398 1.49243 24.4756 1.45498C24.3595 1.45468 24.2049 1.41804 24.0887 1.45398C23.9339 1.45358 23.818 1.41703 23.7023 1.308C23.471 1.05368 23.2397 0.799369 23.0083 0.581301C22.9312 0.508611 22.8152 0.472063 22.6992 0.471763C22.4669 0.507409 22.2347 0.506808 22.0022 0.61494C21.731 0.722973 21.4596 0.903499 21.1494 1.08392C21.2275 0.866651 21.2667 0.721774 21.306 0.540647C20.9184 0.757116 20.8781 1.2282 20.4903 1.48091C20.5297 1.26354 20.6077 1.08251 20.6085 0.865048C20.6091 0.683825 20.5323 0.502401 20.4557 0.284729C20.688 0.249083 20.9202 0.213441 21.1138 0.177699C20.8434 0.0682637 20.8434 0.0682637 20.6108 0.176397C20.1846 0.356519 19.7585 0.500397 19.4094 0.75321C18.4788 1.36696 17.5478 2.05322 16.617 2.70322C16.4619 2.81155 16.3066 2.95613 16.0739 3.13676C16.2674 3.10101 16.3448 3.10121 16.4222 3.10141C16.538 3.1742 16.654 3.21075 16.8085 3.28364C16.7307 3.39217 16.6529 3.53695 16.5364 3.64539C16.2647 3.8984 15.8386 4.04228 15.7599 4.44077C15.7597 4.47702 15.7211 4.47692 15.6824 4.47682C14.9456 4.9461 14.2473 5.48797 13.6647 6.13887C13.5094 6.3197 13.4703 6.42833 13.5084 6.60966C14.2824 6.53917 14.3984 6.57571 14.5911 6.79368C14.3973 6.90192 14.0875 6.97361 13.9708 7.15453C13.8541 7.33546 13.7763 7.44399 13.5438 7.55212C13.3888 7.62421 13.3495 7.80534 13.4651 7.95062C13.542 8.0958 13.697 8.02371 13.8133 7.95152C13.9683 7.87943 14.0848 7.771 14.2396 7.73515C14.2785 7.69901 14.3943 7.7718 14.433 7.7719C14.394 7.84429 14.3938 7.91678 14.355 7.95292C14.2773 8.02521 14.1611 8.06116 14.0835 8.13345C14.0059 8.20574 13.8509 8.27782 13.8506 8.35031C13.8885 8.60413 13.6949 8.63987 13.5399 8.71196C13.4235 8.78415 13.3072 8.85634 13.1909 8.92853C13.2677 9.10995 13.3059 9.25503 13.3441 9.40012C13.3052 9.43626 13.2663 9.50865 13.2662 9.54489C11.2087 11.5331 9.19013 13.4851 7.1327 15.4733C6.23996 16.3046 5.34722 17.1359 4.49305 18.0036C4.1049 18.365 3.75532 18.7628 3.56013 19.2698C3.48213 19.4508 3.36531 19.6679 3.21005 19.8125C2.62771 20.3909 2.00667 20.9693 1.42433 21.5477C1.07487 21.9092 0.725533 22.2345 0.491775 22.7051C0.413655 22.9224 0.374347 23.1035 0.567185 23.2852C0.915645 23.2136 0.876213 23.431 0.720452 23.7206ZM21.8164 32.3291C21.893 32.5467 21.9698 32.7281 22.0079 32.9095C21.6208 32.9447 21.5823 32.9084 21.8164 32.3291ZM62.5443 13.7682C62.5444 13.7319 62.6606 13.696 62.6994 13.6599C62.7379 13.7325 62.815 13.8051 62.8149 13.8414C62.7758 13.95 62.6981 14.0586 62.6204 14.1308C62.5817 14.1307 62.5432 14.0944 62.5432 14.0944C62.5435 13.9857 62.5052 13.8768 62.5443 13.7682ZM60.4304 9.63074C60.2749 9.84781 60.5837 10.0661 60.2737 10.2103C60.1583 9.99249 60.0429 9.81097 59.8889 9.5931C60.0823 9.5936 60.1983 9.63014 60.4304 9.63074ZM59.3517 8.28688C59.3512 8.43186 59.3894 8.57694 59.389 8.68567C59.3503 8.68557 59.3115 8.72172 59.3115 8.72172C59.2344 8.64903 59.1185 8.57624 58.9641 8.4671C59.1191 8.39501 59.1967 8.35897 59.3517 8.28688ZM58.9625 8.93828C59.1167 9.11991 59.1547 9.30124 58.9609 9.40947C58.9222 9.40937 58.8837 9.37302 58.845 9.37292C58.8456 9.1917 58.9233 9.08316 58.9625 8.93828ZM57.4987 7.04974C57.7701 6.90547 58.1181 6.94261 58.3884 7.12454C58.1948 7.16028 58.0012 7.19602 57.8075 7.26801C57.6138 7.34 57.4201 7.41199 57.265 7.52033C57.2264 7.48398 57.1878 7.44764 57.1493 7.41129C57.2657 7.30286 57.3437 7.12183 57.4987 7.04974ZM54.1686 7.83852C54.2849 7.76633 54.4012 7.69414 54.4402 7.62175C54.635 7.22356 55.0603 7.29715 55.4864 7.15327C55.253 7.51512 55.2514 7.9863 54.633 7.80347C54.5557 7.76703 54.478 7.87557 54.4005 7.91161C53.9739 8.20047 53.5472 8.52557 53.1593 8.81453C53.1207 8.77818 53.1207 8.77818 53.0821 8.74184C53.4702 8.41663 53.8194 8.12757 54.1686 7.83852ZM50.2653 29.1406C50.2651 29.2131 50.2648 29.2856 50.2647 29.3219C50.2254 29.503 50.1482 29.4303 49.955 29.3573C50.0715 29.2489 50.149 29.2128 50.2653 29.1406ZM51.6972 6.41856C51.9284 6.70912 51.8888 6.96273 51.4228 7.46896C51.54 7.14305 51.6186 6.78081 51.6972 6.41856ZM50.4669 4.13192C50.5443 4.13212 50.5826 4.24096 50.6599 4.2774C50.5824 4.31345 50.5046 4.42198 50.4659 4.42188C50.35 4.38534 50.2728 4.31265 50.0796 4.23966C50.2733 4.16767 50.3508 4.13162 50.4669 4.13192ZM49.1562 2.71497C49.3884 2.71557 49.3491 2.89669 49.3098 3.07781L48.9616 3.07691C48.8462 2.85914 48.9241 2.71437 49.1562 2.71497ZM48.9213 3.548L48.9599 3.5481C48.921 3.62049 48.9206 3.72922 48.8817 3.80161C48.843 3.80151 48.843 3.80151 48.8044 3.76517C48.8432 3.72902 48.8823 3.62039 48.9213 3.548ZM47.6131 1.40614C47.6125 1.58737 47.6507 1.73245 47.6117 1.80484C47.4562 2.0219 47.2237 2.13004 46.8369 2.09279C47.1086 1.83978 47.3414 1.65916 47.6131 1.40614ZM45.2144 1.36369C45.4855 1.2919 45.7176 1.2925 45.9886 1.25696C45.9881 1.40194 46.0263 1.54702 46.0256 1.72824C45.9869 1.72814 45.9481 1.76428 45.9481 1.76428C45.9097 1.69169 45.8711 1.65535 45.7941 1.54642C45.755 1.65505 45.7161 1.72744 45.6772 1.79983C45.4065 1.76288 45.1359 1.68969 44.8652 1.65275C44.9045 1.47162 45.0595 1.39953 45.2144 1.36369ZM45.0192 1.87062C44.98 2.0155 45.0182 2.16057 44.9407 2.19662C44.8242 2.30505 44.7078 2.41349 44.5529 2.44933C44.0105 2.6654 43.5837 3.02675 43.1568 3.38809C42.9629 3.53257 42.769 3.64081 42.5751 3.78528C42.5365 3.74894 42.5366 3.7127 42.4981 3.67635C43.3127 3.06229 44.0115 2.37544 45.0192 1.87062ZM41.1784 4.90527C41.4118 4.54342 41.7607 4.32686 42.1484 4.11039C41.915 4.47224 41.5658 4.76129 41.1781 4.97776C41.1781 4.97776 41.1396 4.94141 41.1784 4.90527ZM41.1393 5.01391C41.0616 5.12244 40.9839 5.19473 40.8285 5.37555C40.9456 5.0859 40.9456 5.0859 41.1393 5.01391ZM36.4722 34.7229C36.2781 34.9037 36.2781 34.9037 35.9298 34.939C35.9299 34.9028 35.8913 34.8664 35.8914 34.8302C36.085 34.7944 36.2399 34.7586 36.4722 34.7229ZM36.3341 7.21242C36.4109 7.39385 36.333 7.53863 36.1781 7.57447C35.9845 7.61022 35.7912 7.57347 35.7147 7.31956C35.9469 7.28391 36.1405 7.24817 36.3341 7.21242ZM33.289 3.83374C33.4442 3.7254 33.6379 3.65341 33.7926 3.65382C33.9861 3.65432 33.9855 3.83554 34.0237 3.98062C33.8296 4.16134 33.5973 4.19699 33.3654 4.12389C33.2496 4.05111 33.1728 3.86968 33.289 3.83374ZM31.7948 33.4785C31.756 33.5146 31.7173 33.5145 31.6786 33.5144C31.6399 33.5143 31.6013 33.478 31.5242 33.4053C31.6404 33.3693 31.6791 33.3694 31.7178 33.3695C31.7563 33.4059 31.7948 33.4785 31.7948 33.4785ZM31.6262 3.57571C31.626 3.6482 31.6645 3.68455 31.6644 3.72079C31.5868 3.79308 31.4706 3.82903 31.3929 3.90132C31.3544 3.86497 31.3545 3.82873 31.3159 3.79238C31.3936 3.72009 31.5099 3.6479 31.6262 3.57571ZM30.5557 33.7652C30.5945 33.7291 30.6718 33.7655 30.788 33.7296C30.7102 33.8381 30.6714 33.8743 30.6326 33.9104C30.5938 33.9466 30.5165 33.9101 30.4004 33.9098C30.4781 33.8375 30.5169 33.8014 30.5557 33.7652ZM29.1497 3.6418C29.1499 3.60555 29.15 3.5693 29.1501 3.53306C29.2275 3.53326 29.3049 3.53346 29.3823 3.53366C29.3823 3.53366 29.3821 3.5699 29.382 3.60615L29.1497 3.6418ZM29.8102 2.84611C29.8489 2.84621 29.8876 2.84631 29.9262 2.88265C29.8869 3.06378 29.8475 3.2449 29.8079 3.53476C29.5768 3.20796 29.7708 3.06348 29.8102 2.84611ZM29.4619 2.88145C29.6939 2.9183 29.6546 3.09942 29.538 3.2441C29.3833 3.2437 29.2285 3.2433 29.0352 3.20655C29.1133 2.98928 29.2298 2.84461 29.4619 2.88145ZM28.84 3.71348C28.801 3.78587 28.8007 3.89461 28.7233 3.89441C28.1419 4.18286 27.5991 4.50767 27.0178 4.79612C27.4838 4.2899 28.5304 3.71268 28.84 3.71348ZM25.9767 3.74231C26.0927 3.77886 26.1698 3.85155 26.2858 3.8881C26.2856 3.92434 26.2855 3.96058 26.2468 3.96048C26.1694 3.96028 26.1307 3.96019 26.0535 3.92374C25.9762 3.88729 25.9377 3.85095 25.8992 3.77836C25.9379 3.77846 25.938 3.74221 25.9767 3.74231ZM25.7064 3.59663C25.7063 3.63288 25.7061 3.66912 25.706 3.70537C25.5896 3.8138 25.3965 3.70457 25.2418 3.66792C25.3966 3.66832 25.5515 3.63248 25.7064 3.59663ZM23.8617 33.8929C24.0167 33.8208 24.0943 33.7485 24.2106 33.6763C24.2491 33.7489 24.2877 33.7853 24.2875 33.8215C24.2098 33.93 24.1323 33.9661 23.8617 33.8929ZM24.6687 1.56421C24.7845 1.637 24.7844 1.67325 24.6672 1.99916C24.3579 1.92586 23.8931 2.06964 23.7788 1.56191C24.1277 1.34534 24.4373 1.34615 24.6687 1.56421ZM22.4336 32.8743C22.3565 32.8016 22.3179 32.7653 22.2408 32.6926C22.2796 32.6565 22.3185 32.5841 22.3184 32.6203C22.3956 32.6568 22.4728 32.7294 22.55 32.7659L22.4336 32.8743ZM22.4265 1.01474C22.3482 1.26825 22.1936 1.2316 22.0392 1.12247C22.1554 1.08652 22.2716 1.05058 22.4265 1.01474ZM22.2708 1.26805C22.2705 1.37678 22.2703 1.41303 22.2702 1.44927C22.1927 1.48532 22.0765 1.52126 21.999 1.5573C21.9991 1.52106 21.9606 1.48472 21.9607 1.44847C22.0382 1.41243 22.1158 1.34014 22.2708 1.26805ZM20.2992 0.791757C20.2992 0.791757 20.338 0.755614 20.3379 0.791857L20.3765 0.8282C20.3375 0.900591 20.3373 0.973081 20.2983 1.04547C20.2596 1.04537 20.2596 1.04537 20.221 1.04527C20.26 0.936637 20.299 0.864247 20.2992 0.791757ZM19.9896 0.827199C20.0281 0.863546 20.0278 0.97228 19.9891 0.972179C19.8339 1.08051 19.7568 1.00782 19.6411 0.898791C19.7578 0.717868 19.874 0.681922 19.9896 0.827199ZM17.7011 2.48855C18.1665 2.16355 18.5935 1.76596 19.2523 1.44146C19.2131 1.58634 19.2129 1.65883 19.1742 1.65873C18.8251 1.91154 18.4372 2.2005 18.0496 2.41697C17.9719 2.48926 17.8172 2.48886 17.701 2.5248C17.6623 2.5247 17.6624 2.48845 17.7011 2.48855ZM17.6622 2.56094C17.6619 2.63344 17.6617 2.70593 17.623 2.70583C17.3903 2.8502 17.1578 2.95834 16.9253 3.06647C17.0809 2.81316 17.3137 2.63253 17.6622 2.56094ZM16.5389 2.92049C16.6553 2.81205 16.7718 2.70362 16.8883 2.55894C16.8488 2.81256 16.8488 2.81256 16.5389 2.92049ZM2.56299 28.0023C2.40724 28.2918 2.29203 28.0378 2.13727 28.0374C2.25383 27.8927 2.37028 27.7843 2.56299 28.0023ZM1.64321 25.4265L1.72047 25.4629C1.72034 25.4992 1.6814 25.5716 1.64259 25.6077C1.56533 25.5713 1.52676 25.5349 1.48807 25.5348C1.56558 25.4988 1.60439 25.4626 1.64321 25.4265ZM51.5845 5.43964C51.6232 5.43974 51.6619 5.43984 51.7005 5.43994C51.7008 5.36745 51.6624 5.29486 51.6626 5.22237C51.6239 5.22227 51.6239 5.22227 51.5852 5.22217C51.5463 5.29456 51.5847 5.36715 51.5845 5.43964ZM63.3997 12.5381C63.3611 12.5017 63.3613 12.4655 63.3227 12.4291C63.284 12.429 63.2452 12.4652 63.2065 12.4651C63.2451 12.5014 63.2449 12.5377 63.2449 12.5377C63.3222 12.5741 63.361 12.538 63.3997 12.5381ZM56.4957 6.17726C56.4959 6.14102 56.4959 6.14102 56.4957 6.17726C56.341 6.17686 56.2249 6.17656 56.0701 6.17616C56.2249 6.17656 56.3797 6.17696 56.4957 6.17726Z" fill="#9B51E0" fill-opacity="0.1"/>
</svg>
