<svg width="40" height="44" viewBox="0 0 40 44" fill="none" xmlns="http://www.w3.org/2000/svg">
<path id="Vector" d="M17.2983 9.53272L8.9827 21.2244L0.0817955 21.6738L13.3025 1.97866L36.9755 0.470542L23.8295 20.2956L10.785 21.0527L18.4152 10.2733L17.2983 9.53272ZM11.1045 30.0283C11.3534 30.4613 11.4134 30.9165 11.2845 31.3938C11.1555 31.8711 10.8746 32.2342 10.4416 32.4831C10.0085 32.7319 9.575 32.7795 9.14098 32.6257C8.70696 32.4719 8.36552 32.1784 8.11665 31.7454C7.86779 31.3124 7.78616 30.8697 7.87177 30.4172C7.95738 29.9648 8.2167 29.6141 8.64972 29.3653C9.08275 29.1164 9.53792 29.0564 10.0152 29.1853C10.4926 29.3143 10.8557 29.5952 11.1045 30.0283ZM8.62732 27.8228C8.14453 27.9851 7.7548 28.209 7.45816 28.4947L5.81565 25.6368L8.9827 21.2244L10.785 21.0527L7.43277 25.7443L8.62732 27.8228ZM9.46052 34.0838C10.0429 34.0947 10.5939 33.9509 11.1135 33.6522C11.6331 33.3536 12.0348 32.9499 12.3185 32.4412L18.7885 40.9928L13.7221 43.9045L9.46052 34.0838ZM11.4763 22.5563L24.6508 21.7246L33.3531 8.60097L39.0272 18.4739L38.842 18.7532C36.3016 23.5543 33.0395 27.0996 29.0557 29.3892C25.0718 31.6787 20.3663 32.7125 14.939 32.4905L14.6046 32.5099L9.97567 24.4557L11.4763 22.5563Z" fill="#9B51E0"/>
</svg>
