<svg width="31" height="41" viewBox="0 0 31 41" fill="none" xmlns="http://www.w3.org/2000/svg">
<path id="Vector" d="M24.6334 16.9566H5.83343C5.65565 16.9566 5.52232 17.0233 5.43343 17.1566C5.34454 17.2899 5.3001 17.4455 5.3001 17.6233C5.3001 17.8011 5.34454 17.9344 5.43343 18.0233C5.52232 18.1122 5.65565 18.1566 5.83343 18.1566H24.6334C24.8112 18.1566 24.9668 18.1122 25.1001 18.0233C25.2334 17.9344 25.3001 17.8011 25.3001 17.6233C25.3001 17.4455 25.2334 17.2899 25.1001 17.1566C24.9668 17.0233 24.8112 16.9566 24.6334 16.9566ZM24.6334 11.8899H5.83343C5.65565 11.8899 5.52232 11.9566 5.43343 12.0899C5.34454 12.2233 5.3001 12.3788 5.3001 12.5566C5.3001 12.7344 5.34454 12.8899 5.43343 13.0233C5.52232 13.1566 5.65565 13.2233 5.83343 13.2233H24.6334C24.8112 13.2233 24.9668 13.1566 25.1001 13.0233C25.2334 12.8899 25.3001 12.7344 25.3001 12.5566C25.3001 12.3788 25.2334 12.2233 25.1001 12.0899C24.9668 11.9566 24.8112 11.8899 24.6334 11.8899ZM24.6334 21.8899H5.83343C5.65565 21.8899 5.52232 21.9566 5.43343 22.0899C5.34454 22.2233 5.3001 22.3788 5.3001 22.5566C5.3001 22.7344 5.34454 22.8899 5.43343 23.0233C5.52232 23.1566 5.65565 23.2233 5.83343 23.2233H24.6334C24.8112 23.2233 24.9668 23.1566 25.1001 23.0233C25.2334 22.8899 25.3001 22.7344 25.3001 22.5566C25.3001 22.3788 25.2334 22.2233 25.1001 22.0899C24.9668 21.9566 24.8112 21.8899 24.6334 21.8899ZM24.6334 26.9566H5.83343C5.65565 26.9566 5.52232 27.0233 5.43343 27.1566C5.34454 27.2899 5.3001 27.4455 5.3001 27.6233C5.3001 27.8011 5.34454 27.9344 5.43343 28.0233C5.52232 28.1122 5.65565 28.1566 5.83343 28.1566H24.6334C24.8112 28.1566 24.9668 28.1122 25.1001 28.0233C25.2334 27.9344 25.3001 27.8011 25.3001 27.6233C25.3001 27.4455 25.2334 27.2899 25.1001 27.1566C24.9668 27.0233 24.8112 26.9566 24.6334 26.9566ZM19.5668 31.8899H5.83343C5.65565 31.8899 5.52232 31.9566 5.43343 32.0899C5.34454 32.2233 5.3001 32.3788 5.3001 32.5566C5.3001 32.7344 5.34454 32.8899 5.43343 33.0233C5.52232 33.1566 5.65565 33.2233 5.83343 33.2233H19.5668C19.7445 33.2233 19.9001 33.1566 20.0334 33.0233C20.1668 32.8899 20.2334 32.7344 20.2334 32.5566C20.2334 32.3788 20.1668 32.2233 20.0334 32.0899C19.9001 31.9566 19.7445 31.8899 19.5668 31.8899ZM30.1001 8.42327C30.0112 8.42327 28.7223 7.17883 26.2334 4.68994L22.3668 0.823273C22.2779 0.734383 21.9223 0.689938 21.3001 0.689938H3.3001C2.41121 0.689938 1.65565 1.00105 1.03343 1.62327C0.411209 2.24549 0.100098 3.00105 0.100098 3.88994V37.6233C0.100098 38.4233 0.411209 39.1344 1.03343 39.7566C1.65565 40.3788 2.41121 40.6899 3.3001 40.6899H27.0334C27.9223 40.6899 28.6557 40.3788 29.2334 39.7566C29.8112 39.1344 30.1001 38.4233 30.1001 37.6233V9.88994C30.1001 9.00105 30.1001 8.55661 30.1001 8.55661V8.42327ZM27.9668 8.1566H22.6334V2.82327L27.9668 8.1566ZM27.0334 39.4899H3.3001C2.76676 39.4899 2.32232 39.2899 1.96676 38.8899C1.61121 38.4899 1.43343 38.0677 1.43343 37.6233V3.88994C1.43343 3.35661 1.61121 2.88994 1.96676 2.48994C2.32232 2.08994 2.76676 1.88994 3.3001 1.88994H21.4334V8.82327C21.4334 9.00105 21.5001 9.15661 21.6334 9.28994C21.7668 9.42327 21.9223 9.48994 22.1001 9.48994H28.9001V37.6233C28.9001 38.0677 28.7223 38.4899 28.3668 38.8899C28.0112 39.2899 27.5668 39.4899 27.0334 39.4899Z" fill="#219653"/>
</svg>
