<svg width="41" height="34" viewBox="0 0 41 34" fill="none" xmlns="http://www.w3.org/2000/svg">
<path id="Vector" d="M33.4334 0.0233536H0.100098V33.3567H40.1001V0.0233536H33.4334ZM5.43343 32.0234H1.43343V28.0234H5.43343V32.0234ZM5.43343 26.69H1.43343V22.69H5.43343V26.69ZM5.43343 21.3567H1.43343V17.3567H5.43343V21.3567ZM5.43343 16.0234H1.43343V12.0234H5.43343V16.0234ZM5.43343 10.69H1.43343V6.69002H5.43343V10.69ZM5.43343 5.35669H1.43343V1.35669H5.43343V5.35669ZM33.4334 32.0234H6.76676V1.35669H33.4334V32.0234ZM38.7668 32.0234H34.7668V28.0234H38.7668V32.0234ZM38.7668 26.69H34.7668V22.69H38.7668V26.69ZM38.7668 21.3567H34.7668V17.3567H38.7668V21.3567ZM38.7668 16.0234H34.7668V12.0234H38.7668V16.0234ZM38.7668 10.69H34.7668V6.69002H38.7668V10.69ZM38.7668 5.35669H34.7668V1.35669H38.7668V5.35669ZM25.3001 16.4234C25.3001 16.2456 25.2557 16.1567 25.1668 16.1567L15.8334 10.8234C15.6557 10.7345 15.4779 10.7122 15.3001 10.7567C15.1223 10.8011 14.989 10.89 14.9001 11.0234C14.8112 11.1567 14.7668 11.2678 14.7668 11.3567V22.0234C14.7668 22.29 14.8779 22.49 15.1001 22.6234C15.3223 22.7567 15.5668 22.7345 15.8334 22.5567L25.1668 17.2234C25.2557 17.1345 25.3223 17.0011 25.3668 16.8234C25.4112 16.6456 25.389 16.5122 25.3001 16.4234ZM16.1001 20.8234V12.5567L23.4334 16.69L16.1001 20.8234Z" fill="#FF2E2E"/>
</svg>
