<svg width="40" height="44" viewBox="0 0 40 44" fill="none" xmlns="http://www.w3.org/2000/svg">
<path id="Vector" d="M29.1234 34.0431C28.9323 34.0431 28.7651 34.1148 28.6218 34.2581C28.4784 34.4015 28.4068 34.5926 28.4068 34.8315C28.4068 35.0704 28.4784 35.2854 28.6218 35.4765C28.7651 35.6676 28.9562 35.7631 29.1951 35.7631C29.434 35.7631 29.6251 35.6676 29.7684 35.4765C29.9118 35.2854 29.9834 35.0704 29.9834 34.8315C29.9834 34.5926 29.9118 34.4015 29.7684 34.2581C29.6251 34.1148 29.4101 34.0431 29.1234 34.0431ZM31.2734 31.3198L27.2601 30.0298L25.8268 27.1631C27.1645 25.7298 27.9768 24.1054 28.2634 22.2898L28.5501 21.1431H29.9834C30.7479 21.1431 31.369 20.9042 31.8468 20.4265C32.3245 19.9487 32.5634 19.3754 32.5634 18.7065V13.4031C32.5634 11.1098 31.9901 9.00757 30.8434 7.09646C29.6968 5.18535 28.1679 3.65646 26.2568 2.5098C24.3457 1.36313 22.2434 0.789795 19.9501 0.789795C17.6568 0.789795 15.5545 1.36313 13.6434 2.5098C11.7323 3.65646 10.2034 5.18535 9.05676 7.09646C7.9101 9.00757 7.33676 11.1098 7.33676 13.4031V18.7065C7.33676 19.1842 7.50399 19.662 7.83843 20.1398C8.17288 20.6176 8.57899 20.9042 9.05676 20.9998V22.0031C9.05676 22.7676 9.29565 23.3887 9.77343 23.8665C10.2512 24.3442 10.8245 24.5831 11.4934 24.5831H12.3534C12.6401 25.3476 13.0701 26.0642 13.6434 26.7331L14.0734 27.1631L12.6401 30.0298L8.62676 31.3198C6.33343 32.0842 4.42232 33.5654 2.89343 35.7631C1.36454 37.9609 0.600098 40.3498 0.600098 42.9298C0.600098 43.2165 0.695653 43.4315 0.886764 43.5748C1.07788 43.7181 1.26899 43.7898 1.4601 43.7898H38.4401C38.6312 43.7898 38.8223 43.7181 39.0134 43.5748C39.2045 43.4315 39.3001 43.2165 39.3001 42.9298C39.3001 40.3498 38.5357 37.9609 37.0068 35.7631C35.4779 33.5654 33.5668 32.0842 31.2734 31.3198ZM30.8434 18.7065C30.8434 18.8976 30.7718 19.0887 30.6284 19.2798C30.4851 19.4709 30.2701 19.5665 29.9834 19.5665H28.6934C28.9801 17.8465 29.1234 16.1265 29.1234 14.4065V14.2631H30.8434V18.7065ZM9.91676 19.5665C9.6301 19.5665 9.4151 19.4709 9.27176 19.2798C9.12843 19.0887 9.05676 18.8976 9.05676 18.7065V14.2631H10.7768V14.5498C10.7768 16.1742 10.9201 17.8465 11.2068 19.5665H9.91676ZM11.4934 22.8631C11.3023 22.8631 11.1351 22.7915 10.9918 22.6481C10.8484 22.5048 10.7768 22.2898 10.7768 22.0031V21.1431H11.3501L11.6368 22.8631H11.4934ZM10.7768 12.5431H9.05676C9.24788 10.7276 9.82121 9.03146 10.7768 7.4548C11.7323 5.87813 13.0223 4.65979 14.6468 3.7998C16.2712 2.9398 18.039 2.5098 19.9501 2.5098C21.8612 2.5098 23.6051 2.9398 25.1818 3.7998C26.7584 4.65979 28.0484 5.87813 29.0518 7.4548C30.0551 9.03146 30.6523 10.7276 30.8434 12.5431H29.1234C29.1234 11.0142 28.7412 9.6048 27.9768 8.3148C27.2123 7.0248 26.1851 5.99757 24.8951 5.23313C23.6051 4.46869 22.1957 4.08646 20.6668 4.08646H19.2334C17.7045 4.08646 16.2951 4.46869 15.0051 5.23313C13.7151 5.99757 12.6879 7.0248 11.9234 8.3148C11.159 9.6048 10.7768 11.0142 10.7768 12.5431ZM19.2334 5.80646H20.6668C22.5779 5.80646 24.2023 6.47535 25.5401 7.81313C26.8779 9.15091 27.5468 10.7754 27.5468 12.6865V13.4031L26.4001 13.2598C23.4379 12.782 20.9057 11.492 18.8034 9.3898C18.7079 9.29424 18.5168 9.24646 18.2301 9.24646C17.0834 9.24646 16.0084 9.48535 15.0051 9.96313C14.0018 10.4409 13.1657 11.1098 12.4968 11.9698C12.5923 10.2498 13.2851 8.79257 14.5751 7.59813C15.8651 6.40368 17.4179 5.80646 19.2334 5.80646ZM13.5001 22.8631C13.2134 22.1942 12.9745 20.9998 12.7834 19.2798C12.5923 17.5598 12.4968 16.0309 12.4968 14.6931L13.5001 13.2598C14.0734 12.4954 14.7423 11.922 15.5068 11.5398C16.2712 11.1576 17.0834 10.9187 17.9434 10.8231C20.2368 13.1165 23.0079 14.4542 26.2568 14.8365L27.4034 15.1231C27.3079 16.8431 27.1645 18.5154 26.9734 20.1398L26.6868 22.0031C26.4001 23.3409 25.8029 24.5592 24.8951 25.6581C23.9873 26.757 22.9362 27.4498 21.7418 27.7365C20.5473 28.0231 19.3768 28.0231 18.2301 27.7365C16.5101 27.2587 15.1723 26.2076 14.2168 24.5831H15.9368C16.1279 25.0609 16.4384 25.467 16.8684 25.8015C17.2984 26.1359 17.7523 26.3031 18.2301 26.3031H19.9501C20.619 26.3031 21.2162 26.0403 21.7418 25.5148C22.2673 24.9892 22.5301 24.392 22.5301 23.7231C22.5301 23.0542 22.2673 22.457 21.7418 21.9315C21.2162 21.4059 20.619 21.1431 19.9501 21.1431H18.2301C17.7523 21.1431 17.2984 21.3104 16.8684 21.6448C16.4384 21.9792 16.1279 22.3854 15.9368 22.8631H13.5001ZM18.2301 29.4565C18.8034 29.552 19.3529 29.5998 19.8784 29.5998C20.404 29.5998 20.9057 29.552 21.3834 29.4565L19.8068 31.0331L18.2301 29.4565ZM18.6601 32.3231L16.0801 35.0465C15.3157 33.7087 14.6468 32.2754 14.0734 30.7465L15.0768 28.7398L18.6601 32.3231ZM24.6801 28.4531L25.8268 30.7465C25.2534 32.2754 24.5845 33.7087 23.8201 35.0465L21.0968 32.3231L24.6801 28.4531ZM17.3701 23.7231C17.3701 23.532 17.4657 23.3409 17.6568 23.1498C17.8479 22.9587 18.039 22.8631 18.2301 22.8631H19.9501C20.1412 22.8631 20.3323 22.9587 20.5234 23.1498C20.7145 23.3409 20.8101 23.532 20.8101 23.7231C20.8101 23.9142 20.7145 24.1054 20.5234 24.2965C20.3323 24.4876 20.1412 24.5831 19.9501 24.5831H18.2301C18.039 24.5831 17.8479 24.4876 17.6568 24.2965C17.4657 24.1054 17.3701 23.9142 17.3701 23.7231ZM2.3201 42.0698C2.51121 39.9676 3.22788 38.0804 4.4701 36.4081C5.71232 34.7359 7.28899 33.5654 9.2001 32.8965L12.6401 31.7498C13.309 33.5654 14.1212 35.2854 15.0768 36.9098C15.7457 38.152 16.5101 39.3465 17.3701 40.4931L18.3734 42.0698H2.3201ZM19.9501 41.3531L18.8034 39.4898C18.1345 38.5342 17.5134 37.5787 16.9401 36.6231L19.8068 33.4698L22.9601 36.6231C22.3868 37.5787 21.7657 38.5342 21.0968 39.4898L19.9501 41.3531ZM21.5268 42.0698L22.5301 40.4931C23.3901 39.3465 24.1545 38.152 24.8234 36.9098C25.779 35.2854 26.5912 33.5654 27.2601 31.7498L30.7001 32.8965C32.6112 33.5654 34.1879 34.7359 35.4301 36.4081C36.6723 38.0804 37.389 39.9676 37.5801 42.0698H21.5268ZM35.0001 38.7731C34.4268 37.6265 33.6623 36.6231 32.7068 35.7631C32.5157 35.6676 32.3007 35.6437 32.0618 35.6915C31.8229 35.7392 31.6318 35.8348 31.4884 35.9781C31.3451 36.1215 31.2973 36.3126 31.3451 36.5515C31.3929 36.7904 31.4645 37.0054 31.5601 37.1965C32.4201 37.7698 33.089 38.5342 33.5668 39.4898C33.6623 39.6809 33.8057 39.8242 33.9968 39.9198C34.1879 40.0154 34.4029 39.9915 34.6418 39.8481C34.8807 39.7048 35.024 39.5376 35.0718 39.3465C35.1195 39.1554 35.0957 38.9642 35.0001 38.7731Z" fill="#2494E4"/>
</svg>
