<svg width="14" height="14" viewBox="0 0 14 14" fill="none" xmlns="http://www.w3.org/2000/svg">
<path d="M3.42969 13.1387H0.705078V4.37891H3.42969V13.1387ZM2.05273 3.20703C1.20312 3.20703 0.5 2.47461 0.5 1.5957C0.5 0.746094 1.20312 0.0429688 2.05273 0.0429688C2.93164 0.0429688 3.63477 0.746094 3.63477 1.5957C3.63477 2.47461 2.93164 3.20703 2.05273 3.20703ZM13.5957 13.1387H10.9004V8.89062C10.9004 7.86523 10.8711 6.57617 9.46484 6.57617C8.05859 6.57617 7.85352 7.66016 7.85352 8.80273V13.1387H5.12891V4.37891H7.73633V5.58008H7.76562C8.14648 4.90625 9.02539 4.17383 10.3438 4.17383C13.0977 4.17383 13.625 5.99023 13.625 8.33398V13.1387H13.5957Z" fill="#E7EFFC"/>
</svg>
