<svg width="11" height="14" viewBox="0 0 11 14" fill="none" xmlns="http://www.w3.org/2000/svg">
<path id="Vector" d="M9.38667 7.18691C9.24444 7.04469 9.07556 7.00025 8.88 7.05358C8.68444 7.10691 8.56 7.22247 8.50667 7.40025C8.45333 7.57802 8.49778 7.73803 8.64 7.88025C9.06667 8.30691 9.39556 8.7958 9.62667 9.34691C9.85778 9.89803 9.97333 10.4758 9.97333 11.0802C9.97333 11.2936 9.78667 11.5158 9.41333 11.7469C9.04 11.978 8.53333 12.1647 7.89333 12.3069C7.14667 12.4847 6.34667 12.5736 5.49333 12.5736C4.64 12.5736 3.84 12.4847 3.09333 12.3069C2.45333 12.1647 1.94667 11.978 1.57333 11.7469C1.2 11.5158 1.01333 11.2936 1.01333 11.0802C1.01333 10.4758 1.12 9.89803 1.33333 9.34691C1.54667 8.7958 1.86667 8.30691 2.29333 7.88025C2.43556 7.77358 2.48 7.62247 2.42667 7.42691C2.37333 7.23136 2.25778 7.10691 2.08 7.05358C1.90222 7.00025 1.74222 7.04469 1.6 7.18691C1.10222 7.72025 0.711111 8.3158 0.426667 8.97358C0.142222 9.63136 0 10.3336 0 11.0802C0 11.6136 0.266667 12.0669 0.8 12.4402C1.33333 12.8136 2.01778 13.098 2.85333 13.2936C3.68889 13.4891 4.56889 13.5869 5.49333 13.5869C6.41778 13.5869 7.29778 13.4891 8.13333 13.2936C8.96889 13.098 9.65333 12.8136 10.1867 12.4402C10.72 12.0669 10.9867 11.6136 10.9867 11.0802C10.9867 10.3336 10.8444 9.62247 10.56 8.94691C10.2756 8.27136 9.88444 7.68469 9.38667 7.18691ZM5.49333 7.56025C6.13333 7.56025 6.72 7.40914 7.25333 7.10691C7.78667 6.80469 8.21333 6.38691 8.53333 5.85358C8.85333 5.32025 9.01333 4.73358 9.01333 4.09358C9.01333 3.45358 8.85333 2.86691 8.53333 2.33358C8.21333 1.80025 7.78667 1.37358 7.25333 1.05358C6.72 0.733581 6.13333 0.573581 5.49333 0.573581C4.85333 0.573581 4.26667 0.733581 3.73333 1.05358C3.2 1.37358 2.77333 1.80025 2.45333 2.33358C2.13333 2.86691 1.97333 3.45358 1.97333 4.09358C1.97333 4.73358 2.13333 5.32025 2.45333 5.85358C2.77333 6.38691 3.2 6.80469 3.73333 7.10691C4.26667 7.40914 4.85333 7.56025 5.49333 7.56025ZM5.49333 1.58691C6.16889 1.58691 6.75556 1.82691 7.25333 2.30691C7.75111 2.78691 8 3.37358 8 4.06691C8 4.76025 7.75111 5.3558 7.25333 5.85358C6.75556 6.35136 6.16889 6.60025 5.49333 6.60025C4.81778 6.60025 4.23111 6.35136 3.73333 5.85358C3.23556 5.3558 2.98667 4.76025 2.98667 4.06691C2.98667 3.37358 3.23556 2.78691 3.73333 2.30691C4.23111 1.82691 4.81778 1.58691 5.49333 1.58691Z" fill="#1363DF"/>
</svg>
