<svg width="17" height="20" viewBox="0 0 17 20" fill="none" xmlns="http://www.w3.org/2000/svg">
<path id="Vector" d="M13.5268 13.683C13.1045 13.683 12.6929 13.7674 12.2918 13.9363C11.8907 14.1052 11.5423 14.3585 11.2468 14.6963L6.11676 11.5296C6.28565 11.1496 6.3701 10.7696 6.3701 10.3896C6.3701 10.0096 6.28565 9.62965 6.11676 9.24965L11.2468 6.08298C11.5423 6.42076 11.8907 6.67409 12.2918 6.84298C12.6929 7.01187 13.1045 7.09632 13.5268 7.09632C14.4134 7.09632 15.1523 6.7902 15.7434 6.17798C16.3345 5.56576 16.6301 4.83743 16.6301 3.99298C16.6301 3.14854 16.3345 2.4202 15.7434 1.80798C15.1523 1.19576 14.424 0.889648 13.5584 0.889648C12.6929 0.889648 11.954 1.19576 11.3418 1.80798C10.7295 2.4202 10.4234 3.14854 10.4234 3.99298C10.4234 4.37298 10.5079 4.75298 10.6768 5.13298L5.54676 8.29965C5.25121 7.96187 4.90288 7.70854 4.50176 7.53965C4.10065 7.37076 3.66788 7.28631 3.20343 7.28631C2.35899 7.28631 1.63065 7.59243 1.01843 8.20465C0.406209 8.81687 0.100098 9.5452 0.100098 10.3896C0.100098 11.2341 0.406209 11.9624 1.01843 12.5746C1.63065 13.1869 2.35899 13.493 3.20343 13.493C3.66788 13.493 4.10065 13.4085 4.50176 13.2396C4.90288 13.0708 5.25121 12.8174 5.54676 12.4796L10.6768 15.6463C10.5079 16.0263 10.4234 16.4063 10.4234 16.7863C10.4234 17.6308 10.7295 18.3591 11.3418 18.9713C11.954 19.5835 12.6929 19.8896 13.5584 19.8896C14.424 19.8896 15.1523 19.5835 15.7434 18.9713C16.3345 18.3591 16.6301 17.6308 16.6301 16.7863C16.6301 15.9419 16.3345 15.2135 15.7434 14.6013C15.1523 13.9891 14.4134 13.683 13.5268 13.683ZM11.5634 3.99298C11.5634 3.44409 11.7534 2.97965 12.1334 2.59965C12.5134 2.21965 12.9779 2.02965 13.5268 2.02965C14.0757 2.02965 14.5507 2.21965 14.9518 2.59965C15.3529 2.97965 15.5534 3.44409 15.5534 3.99298C15.5534 4.54187 15.3529 5.00632 14.9518 5.38632C14.5507 5.76632 14.0757 5.95632 13.5268 5.95632C12.9779 5.95632 12.5134 5.76632 12.1334 5.38632C11.7534 5.00632 11.5634 4.54187 11.5634 3.99298ZM3.20343 12.353C2.69676 12.353 2.24288 12.163 1.84176 11.783C1.44065 11.403 1.2401 10.9385 1.2401 10.3896C1.2401 9.84076 1.44065 9.37632 1.84176 8.99632C2.24288 8.61631 2.70732 8.42632 3.2351 8.42632C3.76288 8.42632 4.22732 8.61631 4.62843 8.99632C5.02954 9.37632 5.2301 9.84076 5.2301 10.3896C5.2301 10.9385 5.02954 11.403 4.62843 11.783C4.22732 12.163 3.75232 12.353 3.20343 12.353ZM11.5634 16.7863C11.5634 16.2374 11.7534 15.773 12.1334 15.393C12.5134 15.013 12.9779 14.823 13.5268 14.823C14.0757 14.823 14.5507 15.013 14.9518 15.393C15.3529 15.773 15.5534 16.2374 15.5534 16.7863C15.5534 17.3352 15.3529 17.7996 14.9518 18.1796C14.5507 18.5596 14.0757 18.7496 13.5268 18.7496C12.9779 18.7496 12.5134 18.5596 12.1334 18.1796C11.7534 17.7996 11.5634 17.3352 11.5634 16.7863Z" fill="#1363DF"/>
</svg>
