<svg width="16" height="13" viewBox="0 0 16 13" fill="none" xmlns="http://www.w3.org/2000/svg">
<path d="M13.8273 3.4668C13.8273 3.61328 13.8273 3.73047 13.8273 3.87695C13.8273 7.94922 10.7511 12.6074 5.0968 12.6074C3.33899 12.6074 1.72766 12.1094 0.380005 11.2305C0.61438 11.2598 0.848755 11.2891 1.11243 11.2891C2.54797 11.2891 3.86633 10.791 4.92102 9.9707C3.57336 9.94141 2.43079 9.0625 2.04993 7.83203C2.255 7.86133 2.43079 7.89062 2.63586 7.89062C2.89954 7.89062 3.1925 7.83203 3.42688 7.77344C2.02063 7.48047 0.965942 6.25 0.965942 4.75586V4.72656C1.3761 4.96094 1.87415 5.07812 2.37219 5.10742C1.52258 4.55078 0.995239 3.61328 0.995239 2.55859C0.995239 1.97266 1.14172 1.44531 1.4054 1.00586C2.92883 2.85156 5.21399 4.08203 7.76282 4.22852C7.70422 3.99414 7.67493 3.75977 7.67493 3.52539C7.67493 1.82617 9.05188 0.449219 10.7511 0.449219C11.63 0.449219 12.421 0.800781 13.007 1.41602C13.6808 1.26953 14.3546 1.00586 14.9406 0.654297C14.7062 1.38672 14.2374 1.97266 13.5929 2.35352C14.2081 2.29492 14.8234 2.11914 15.3507 1.88477C14.9406 2.5 14.4132 3.02734 13.8273 3.4668Z" fill="#E7EFFC"/>
</svg>
