<svg width="14" height="15" viewBox="0 0 14 15" fill="none" xmlns="http://www.w3.org/2000/svg">
<path d="M11.5128 2.88477C12.7433 4.11523 13.505 5.72656 13.505 7.48438C13.505 11.0586 10.5167 13.9883 6.91321 13.9883C5.82922 13.9883 4.77454 13.6953 3.80774 13.1973L0.380005 14.0762L1.28821 10.707C0.731567 9.74023 0.409302 8.62695 0.409302 7.45508C0.409302 3.88086 3.33899 0.951172 6.91321 0.951172C8.67102 0.951172 10.3116 1.6543 11.5128 2.88477ZM6.91321 12.875C9.90149 12.875 12.3917 10.4434 12.3917 7.48438C12.3917 6.01953 11.7765 4.67188 10.7511 3.64648C9.72571 2.62109 8.37805 2.06445 6.9425 2.06445C3.95422 2.06445 1.52258 4.49609 1.52258 7.45508C1.52258 8.48047 1.81555 9.47656 2.3429 10.3555L2.48938 10.5605L1.93274 12.5527L3.98352 11.9961L4.1593 12.1133C5.00891 12.6113 5.94641 12.875 6.91321 12.875ZM9.90149 8.83203C10.048 8.91992 10.1652 8.94922 10.1945 9.03711C10.2531 9.0957 10.2531 9.41797 10.1066 9.79883C9.96008 10.1797 9.31555 10.5312 9.02258 10.5605C8.49524 10.6484 8.08508 10.6191 7.05969 10.1504C5.41907 9.44727 4.36438 7.80664 4.27649 7.71875C4.1886 7.60156 3.63196 6.83984 3.63196 6.01953C3.63196 5.22852 4.04211 4.84766 4.1886 4.67188C4.33508 4.49609 4.51086 4.4668 4.62805 4.4668C4.71594 4.4668 4.83313 4.4668 4.92102 4.4668C5.03821 4.4668 5.1554 4.4375 5.30188 4.75977C5.41907 5.08203 5.77063 5.87305 5.79993 5.96094C5.82922 6.04883 5.85852 6.13672 5.79993 6.25391C5.50696 6.86914 5.1554 6.83984 5.33118 7.13281C5.97571 8.2168 6.59094 8.59766 7.55774 9.06641C7.70422 9.1543 7.79211 9.125 7.9093 9.03711C7.99719 8.91992 8.31946 8.53906 8.40735 8.39258C8.52454 8.2168 8.64172 8.24609 8.78821 8.30469C8.93469 8.36328 9.72571 8.74414 9.90149 8.83203Z" fill="#E7EFFC"/>
</svg>
