<svg width="17" height="13" viewBox="0 0 17 13" fill="none" xmlns="http://www.w3.org/2000/svg">
<path d="M15.714 2.67578C16.0656 3.90625 16.0656 6.54297 16.0656 6.54297C16.0656 6.54297 16.0656 9.15039 15.714 10.4102C15.5382 11.1133 14.9816 11.6406 14.3077 11.8164C13.048 12.1387 8.0675 12.1387 8.0675 12.1387C8.0675 12.1387 3.05774 12.1387 1.79797 11.8164C1.12415 11.6406 0.567505 11.1133 0.391724 10.4102C0.0401611 9.15039 0.0401611 6.54297 0.0401611 6.54297C0.0401611 6.54297 0.0401611 3.90625 0.391724 2.67578C0.567505 1.97266 1.12415 1.41602 1.79797 1.24023C3.05774 0.888672 8.0675 0.888672 8.0675 0.888672C8.0675 0.888672 13.048 0.888672 14.3077 1.24023C14.9816 1.41602 15.5382 1.97266 15.714 2.67578ZM6.42688 8.91602L10.587 6.54297L6.42688 4.16992V8.91602Z" fill="#E7EFFC"/>
</svg>
